<?xml version="1.0" encoding="UTF-8" standalone="no"?>
<!-- Created with Inkscape (http://www.inkscape.org/) -->

<svg
   xmlns:dc="http://purl.org/dc/elements/1.1/"
   xmlns:cc="http://creativecommons.org/ns#"
   xmlns:rdf="http://www.w3.org/1999/02/22-rdf-syntax-ns#"
   xmlns:svg="http://www.w3.org/2000/svg"
   xmlns="http://www.w3.org/2000/svg"
   xmlns:sodipodi="http://sodipodi.sourceforge.net/DTD/sodipodi-0.dtd"
   xmlns:inkscape="http://www.inkscape.org/namespaces/inkscape"
   width="194.17157mm"
   height="123.71876mm"
   viewBox="0 0 194.17157 123.71876"
   version="1.1"
   id="svg8"
   inkscape:version="0.92.2 2405546, 2018-03-11"
   sodipodi:docname="Naissance.svg"
   inkscape:export-filename="/run/media/franc/991f047a-ee36-4f43-870f-27be50b88af1/franc/Documents/Bureautique/PAO/CV/CVFranc/Images/Naissance.png"
   inkscape:export-xdpi="600"
   inkscape:export-ydpi="600">
  <title
     id="title826">Cigogne</title>
  <defs
     id="defs2" />
  <sodipodi:namedview
     id="base"
     pagecolor="#ffffff"
     bordercolor="#666666"
     borderopacity="1.0"
     inkscape:pageopacity="0.0"
     inkscape:pageshadow="2"
     inkscape:zoom="1.6509892"
     inkscape:cx="239.43908"
     inkscape:cy="233.79923"
     inkscape:document-units="mm"
     inkscape:current-layer="g1009"
     showgrid="false"
     inkscape:window-width="1920"
     inkscape:window-height="979"
     inkscape:window-x="0"
     inkscape:window-y="0"
     inkscape:window-maximized="1"
     inkscape:pagecheckerboard="true"
     fit-margin-top="0"
     fit-margin-left="0"
     fit-margin-right="0"
     fit-margin-bottom="0" />
  <metadata
     id="metadata5">
    <rdf:RDF>
      <cc:Work
         rdf:about="">
        <dc:format>image/svg+xml</dc:format>
        <dc:type
           rdf:resource="http://purl.org/dc/dcmitype/StillImage" />
        <dc:title>Cigogne</dc:title>
        <dc:date>19/05/2018-18:00</dc:date>
        <dc:creator>
          <cc:Agent>
            <dc:title>Franc SERRES</dc:title>
          </cc:Agent>
        </dc:creator>
        <dc:publisher>
          <cc:Agent>
            <dc:title>openclipart</dc:title>
          </cc:Agent>
        </dc:publisher>
        <dc:identifier>sefran</dc:identifier>
        <dc:language>Français</dc:language>
        <cc:license
           rdf:resource="http://creativecommons.org/publicdomain/zero/1.0/" />
      </cc:Work>
      <cc:License
         rdf:about="http://creativecommons.org/publicdomain/zero/1.0/">
        <cc:permits
           rdf:resource="http://creativecommons.org/ns#Reproduction" />
        <cc:permits
           rdf:resource="http://creativecommons.org/ns#Distribution" />
        <cc:permits
           rdf:resource="http://creativecommons.org/ns#DerivativeWorks" />
      </cc:License>
    </rdf:RDF>
  </metadata>
  <g
     inkscape:label="Calque 1"
     inkscape:groupmode="layer"
     id="layer1"
     transform="translate(-2.4061227,-0.2736548)">
    <g
       id="g1009"
       inkscape:label="Cigogne">
      <path
         sodipodi:nodetypes="czzzzzzzczzzzzzzzzzzzzzzzzzzzzzzzzzzzzcczzzzzzzzzzzzzzzzzzzzzzzzzzzzzzzzzzzc"
         inkscape:label="Corps"
         inkscape:connector-curvature="0"
         id="path948"
         d="m 28.681076,102.11096 c 0,0 -1.188535,0.0684 -1.834689,0.2621 -0.646154,0.19374 -1.483172,0.49355 -1.984461,0.93606 -0.501289,0.44251 -0.858745,1.03145 -0.97351,1.53515 -0.114765,0.5037 -0.05539,0.8895 0.149771,1.27305 0.205161,0.38355 0.508106,0.66476 1.010952,0.86118 0.502846,0.19642 1.377372,0.10335 1.909577,0.0749 0.532205,-0.0284 0.853265,-0.0872 1.273048,-0.18721 0.419783,-0.10002 1.235609,-0.41187 1.235609,-0.41187 0,0 -0.169283,0.46363 -0.187214,0.74885 -0.01793,0.28522 -0.03952,0.65333 0.112329,0.93607 0.151849,0.28274 0.43091,0.47627 0.748853,0.63652 0.317943,0.16025 0.560109,0.23547 1.123278,0.2621 0.563169,0.0266 1.34154,-0.17566 2.209117,-0.29954 0.867577,-0.12388 1.927424,-0.34011 2.995414,-0.44931 1.06799,-0.1092 2.15196,-0.16986 3.407281,-0.18722 1.255321,-0.0174 2.781478,0.004 4.118694,0.11233 1.337216,0.10785 2.821349,0.33403 3.894034,0.5242 1.072685,0.19017 1.564976,0.31584 2.546102,0.56164 0.981126,0.2458 2.221529,0.61157 3.332398,0.93606 1.110869,0.32449 1.873669,0.68084 3.332395,1.01096 1.458726,0.33013 3.413033,0.5918 5.429186,0.82373 2.016153,0.23193 4.591626,0.4293 6.664794,0.5242 2.073168,0.0949 3.875305,0.0563 5.76617,0.0749 1.890865,0.0186 3.62754,0.15011 5.578956,0.0374 1.951416,-0.1127 4.191947,-0.41202 6.103152,-0.74885 1.911205,-0.33682 3.659904,-0.71222 5.354301,-1.23561 1.694397,-0.52339 3.263691,-1.22135 4.79266,-1.87213 1.528969,-0.65078 2.746724,-1.35916 4.380787,-2.02191 1.63406,-0.66275 3.56316,-1.24215 5.42919,-1.90957 1.86603,-0.66742 4.19955,-1.60077 5.76617,-2.09679 1.56662,-0.49602 1.45985,-0.59685 3.59449,-0.97351 2.13464,-0.37666 6.60109,-0.6215 9.24834,-0.7863 2.64725,-0.1648 4.13029,-0.11201 6.62735,-0.2621 2.49706,-0.15009 6.27085,-0.53337 8.34972,-0.67396 2.07887,-0.14059 2.8427,-0.204949 4.11869,-0.374432 1.27599,-0.169483 2.42025,-0.401899 3.51961,-0.599081 1.09936,-0.197182 0.6712,-0.222902 3.0703,-0.449311 2.3991,-0.226409 11.28846,-0.770054 11.28846,-0.770054 l 0.0627,-4.692599 c 0,0 -0.26661,-0.705857 -0.64216,-1.127255 -0.37555,-0.421398 -0.97677,-0.806015 -1.68492,-1.235609 -0.70815,-0.429594 -1.7651,-0.967625 -2.58354,-1.273051 -0.81844,-0.305426 -1.31015,-0.42641 -2.284,-0.599083 -0.97385,-0.172673 -2.38769,-0.300804 -3.55705,-0.336984 -1.16936,-0.03618 -2.15136,-0.05468 -3.44473,0.112329 -1.29337,0.167009 -2.88601,0.484249 -4.26846,0.973511 -1.38245,0.489262 -2.79482,1.387067 -3.96892,1.947016 -1.1741,0.559949 -2.20307,1.083986 -3.0703,1.422823 -0.86723,0.338837 -1.4143,0.507241 -2.09679,0.673968 -0.68249,0.166727 -0.77502,0.209076 -1.98446,0.336984 -1.20944,0.127908 -3.43157,0.19728 -5.27942,0.224655 -1.84785,0.02737 -3.66241,0.0015 -5.80361,-0.07488 -2.1412,-0.0764 -4.77271,-0.196902 -7.03922,-0.411869 -2.26651,-0.214966 -4.63079,-0.554531 -6.55246,-0.861182 -1.92167,-0.30665 -3.22431,-0.540298 -4.97988,-0.936067 -1.75557,-0.395768 -4.322428,-1.052766 -5.541511,-1.460264 -1.219083,-0.407498 -1.012055,-0.371137 -1.83469,-0.748853 -0.822636,-0.377716 -1.818787,-1.034105 -3.070299,-1.572591 -1.251512,-0.538485 -2.403436,-1.15507 -4.455676,-1.57259 -2.052241,-0.41752 -4.852806,-0.522623 -7.825515,-0.486757 -2.972709,0.03587 -6.798496,0.130532 -9.959747,0.861182 -3.161251,0.730651 -5.732215,1.772426 -8.836469,3.407283 -3.104254,1.634858 -7.262792,5.193929 -9.547876,6.552464 -2.285084,1.358535 -2.720406,1.475658 -3.894037,1.984462 -1.173631,0.508804 -2.12583,0.820534 -3.10774,1.123285 -0.98191,0.30275 -1.727267,0.52236 -2.770759,0.71141 -1.043492,0.18905 -2.319767,0.31213 -3.482166,0.37443 -1.162399,0.0623 -2.282379,0.0605 -3.482167,0 -1.199788,-0.0605 -2.727542,-0.19939 -3.706824,-0.37443 -0.979282,-0.17503 -1.65169,-0.36689 -2.171673,-0.56164 -0.519983,-0.19475 -0.658834,-0.568303 -0.973511,-0.486761 -0.314677,0.08154 -0.399296,0.450841 -0.486754,0.711421 -0.08746,0.26058 -0.0916,0.56088 -0.03744,0.78629 0.05416,0.22541 0.149581,0.38609 0.299542,0.5242 0.149961,0.13811 0.561268,0.26211 0.561268,0.26211 z"
         style="display:inline;fill:#ffffff;fill-rule:evenodd;stroke:#ffffff;stroke-width:0.26458332px;stroke-linecap:butt;stroke-linejoin:miter;stroke-opacity:1" />
      <path
         sodipodi:nodetypes="czzzzzzzzzzzzzzzzzzzcczzzzzzzzzzzzzzczcczzzzzzzcc"
         inkscape:label="OmbreCorps"
         inkscape:connector-curvature="0"
         id="path950"
         d="m 29.857948,108.62322 c 0,0 0.512839,0.30815 0.837138,0.38783 0.324299,0.0797 0.646697,0.10764 1.120527,0.0615 0.47383,-0.0461 1.278152,-0.10494 1.827816,-0.21606 0.549664,-0.11112 1.001395,-0.24282 1.563316,-0.31361 0.561921,-0.0708 0.907709,-0.14842 1.762558,-0.19786 0.854849,-0.0494 2.126924,-0.14594 3.294954,-0.13637 1.16803,0.01 2.682308,-0.0518 3.730868,0.0429 1.04856,0.0947 1.678614,0.21249 2.583543,0.33699 0.904929,0.1245 1.851104,0.35307 2.845641,0.55614 0.994537,0.20307 2.075793,0.33652 3.10774,0.67947 1.031947,0.34295 1.783714,0.87778 3.070299,1.2356 1.286585,0.35782 3.119409,0.55001 4.64289,0.74886 1.523481,0.19885 3.145133,0.31873 4.49312,0.44931 1.347987,0.13058 2.108705,0.257 3.594494,0.33698 1.485789,0.08 3.301156,0.0607 5.316857,0.0749 2.015701,0.0142 4.766333,0.0854 6.777123,0 2.01079,-0.0854 3.521414,-0.17497 5.279413,-0.44932 1.757999,-0.27435 3.432493,-0.65403 5.241973,-1.19816 1.80948,-0.54413 3.933234,-1.40935 5.578956,-2.09679 1.645722,-0.68744 4.305906,-1.98446 4.305906,-1.98446 l 2.77076,-10.483945 c 0,0 -2.61141,-0.715758 -3.781712,-1.310492 -1.170306,-0.594734 -2.242329,-1.486568 -3.182625,-2.209117 -0.940296,-0.722549 -1.737288,-1.31736 -2.471216,-2.096788 -0.733928,-0.779428 -1.52801,-1.383985 -1.909575,-2.546102 -0.381565,-1.162117 -0.175391,-2.630385 0.03744,-4.156135 0.212831,-1.52575 0.780881,-3.271959 1.347936,-4.904989 0.567055,-1.63303 0.870255,-2.46177 2.059347,-4.867545 1.189092,-2.405775 3.983451,-7.022872 5.354305,-9.398108 1.37085,-2.375236 2.15986,-3.448642 2.84564,-4.867545 0.68578,-1.418903 1.01562,-2.462124 1.38538,-3.557053 0.36976,-1.094929 0.6553,-2.112842 0.86118,-2.995411 0.20588,-0.882569 0.3011,-1.341175 0.41187,-2.284003 0.11077,-0.942828 0.17397,-1.958121 0.18721,-3.369839 0.0132,-1.411718 -0.15968,-3.594175 -0.18721,-5.092202 -0.0275,-1.498027 0,-3.894037 0,-3.894037 0,0 -6.41827,-2.23914 -9.435554,-1.797249 -3.017283,0.441891 -5.704819,1.493891 -7.713189,4.006366 -8.319979,16.911283 -26.612019,52.762222 -36.394262,59.196844 -1.101587,-0.0422 -1.739076,0.38894 -2.65843,0.67397 -0.919354,0.28503 -1.870307,0.63807 -2.845642,1.04839 -0.975335,0.41032 -2.053115,0.92797 -2.995414,1.42282 -0.942299,0.49485 -1.827354,1.08105 -2.658427,1.53515 -0.831073,0.4541 -1.296053,0.75169 -2.321446,1.19817 -1.025393,0.44648 -2.504994,1.01958 -3.856593,1.38537 -1.351599,0.36579 -3.273688,0.63767 -4.231021,0.7863 -0.957333,0.14863 -0.896588,0.11499 -0.896588,0.11499 z"
         style="fill:#916f6f;fill-rule:evenodd;stroke:#916f6f;stroke-width:0.26458332px;stroke-linecap:butt;stroke-linejoin:miter;stroke-opacity:1" />
      <path
         inkscape:label="OmbreCoup"
         sodipodi:nodetypes="cssssssszzccsssssssssssssssscsssssssssc"
         inkscape:connector-curvature="0"
         id="path927"
         d="m 81.512668,112.48257 c 0,0 2.961632,-0.0922 4.418235,-0.33698 2.519695,-0.42338 4.996962,-1.11771 7.413646,-1.94702 2.670807,-0.91652 5.159472,-2.30104 7.788071,-3.33239 3.38099,-1.32655 6.81395,-2.52028 10.25929,-3.66939 1.40059,-0.46714 2.78975,-0.99014 4.23102,-1.31049 1.07,-0.23783 2.16626,-0.34618 3.25751,-0.44931 4.35468,-0.41154 8.74043,-0.38461 13.10493,-0.67397 2.92372,-0.19384 5.7564,-0.45899 8.5916,-0.42811 2.8352,0.0309 6.26836,-0.620278 8.29603,-1.02918 2.02767,-0.408902 10.51227,-1.19313 10.51227,-1.19313 l 1.13141,-4.239027 c 0,0 -1.30803,-1.501079 -2.09679,-2.096789 -0.79807,-0.602745 -1.6883,-1.099295 -2.62099,-1.460264 -0.76512,-0.296115 -1.58335,-0.451351 -2.39633,-0.561639 -0.94067,-0.127611 -1.89836,-0.17397 -2.84564,-0.112329 -0.96029,0.06249 -1.91822,0.229931 -2.84564,0.486754 -0.92921,0.25732 -1.82043,0.64434 -2.69587,1.048396 -1.0039,0.463348 -1.93165,1.078007 -2.92053,1.57259 -0.66424,0.332217 -1.33407,0.655934 -2.0219,0.936067 -1.00537,0.409455 -2.02127,0.806622 -3.0703,1.085837 -2.21902,0.590628 -4.50809,0.882932 -6.77712,1.235606 -2.89726,0.450319 -5.82587,0.679499 -8.72414,1.123281 -1.94589,0.297955 -3.57629,0.417471 -5.16709,0.561634 -1.50484,0.136373 -3.01976,0.175098 -4.53056,0.149773 -0.93801,-0.01572 -1.87644,-0.07792 -2.8082,-0.187214 -1.11879,-0.131238 -2.2354,-0.305693 -3.3324,-0.561639 -0.76138,-0.17764 -1.5018,-0.436104 -2.24656,-0.673968 -0.74067,-0.236557 -2.20911,-0.748855 -2.20911,-0.748855 0,0 -0.13488,1.936858 -0.33699,2.883085 -0.0956,0.447796 -0.24604,0.883678 -0.41187,1.310494 -0.22445,0.577717 -0.492966,1.138937 -0.786292,1.684917 -0.339374,0.63169 -0.691375,1.26227 -1.12328,1.83469 -0.633111,0.83908 -1.358624,1.61199 -2.134233,2.32144 -0.847309,0.77504 -1.768901,1.47347 -2.733312,2.09679 -0.952028,0.61531 -1.976085,1.11412 -2.995414,1.61004 -1.176019,0.57215 -2.37926,1.08928 -3.594494,1.57259 -0.480557,0.19112 -0.964453,0.37712 -1.460265,0.5242 -1.352473,0.40121 -4.118692,0.97351 -4.118692,0.97351 z"
         style="fill:#ac9393;fill-rule:evenodd;stroke:#ac9393;stroke-width:0.26458332px;stroke-linecap:butt;stroke-linejoin:miter;stroke-opacity:1" />
      <path
         inkscape:label="PateArrière"
         inkscape:connector-curvature="0"
         id="path964"
         d="m 28.427616,118.20525 10.269305,-3.67246 7.004891,-2.92437 4.692597,-2.3123 2.924373,0.7481 -0.06801,0.95212 z"
         style="fill:#501616;fill-rule:evenodd;stroke:#501616;stroke-width:0.26458332px;stroke-linecap:butt;stroke-linejoin:miter;stroke-opacity:1" />
      <path
         inkscape:label="PateDevant"
         sodipodi:nodetypes="czzzzzzzzzzzczzczzzzzzzzzczsc"
         inkscape:connector-curvature="0"
         id="path962"
         d="m 2.8563633,123.84997 c 0,0 2.1494923,0.0481 3.4004326,-0.068 1.2509403,-0.11613 2.991712,-0.51377 4.0805191,-0.68008 1.088807,-0.16631 1.80084,-0.2798 2.448311,-0.34005 0.647471,-0.0603 0.739628,0.044 1.428182,-0.068 0.688554,-0.112 1.802208,-0.51014 2.652337,-0.7481 0.850129,-0.23796 0.323423,-0.13355 2.448312,-0.68009 2.124889,-0.54654 5.144987,-1.20561 10.337315,-2.44831 5.192328,-1.2427 16.774819,-3.92487 20.810645,-5.03264 4.035826,-1.10777 2.019378,-0.66075 3.53645,-1.08814 1.517072,-0.42739 3.933794,-0.9832 5.576711,-1.42818 1.642917,-0.44498 3.067617,-0.9404 4.284546,-1.22415 1.216929,-0.28375 2.992379,-0.54407 2.992379,-0.54407 0,0 -1.790195,-0.26308 -2.584328,-0.34005 -0.794133,-0.077 -1.280643,0.0351 -2.176278,-0.13601 -0.895635,-0.17115 -3.128399,-1.02013 -3.128399,-1.02013 0,0 -2.177828,1.22615 -3.536447,1.83623 -1.358619,0.61008 -1.984463,0.87536 -4.624588,1.76823 -2.640125,0.89287 -7.367798,2.23095 -11.289438,3.33242 -3.92164,1.10147 -9.545328,2.62158 -12.241556,3.26441 -2.696228,0.64283 -2.746298,0.69843 -3.876493,0.81611 -1.130195,0.11768 -1.792087,0.13351 -2.856364,0 -1.064277,-0.13351 -2.283049,-0.71264 -3.468441,-0.88411 -1.185392,-0.17147 -2.770403,-0.29865 -3.604458,-0.13602 -0.834055,0.16263 -1.089579,0.29924 -1.360173,0.61208 -0.270594,0.31284 -0.272035,0.95212 -0.272035,0.95212 0,0 -1.551053,0.23828 -2.0402594,0.54407 -0.4892061,0.30579 0.3963544,0.65691 -0.8841124,1.02013 -3.0401901,0.86238 -6.0527699,2.72033 -6.0527699,2.72033 z"
         style="fill:#782121;fill-rule:evenodd;stroke:#782121;stroke-width:0.26458332px;stroke-linecap:butt;stroke-linejoin:miter;stroke-opacity:1" />
      <path
         sodipodi:nodetypes="ccczcscsczczczczc"
         inkscape:label="FondAileFond"
         inkscape:connector-curvature="0"
         id="path966"
         d="m 67.056528,29.862018 5.846969,14.668746 -7.790479,16.158029 c 0,0 0.308373,-5.279999 -0.22338,-7.218793 -0.531753,-1.938794 -1.47798,-3.187833 -2.339313,-3.900626 -1.005601,0.104725 -1.774846,0.5805 -2.098866,-0.582458 -0.501052,-1.798355 1.844464,-2.938839 1.844464,-2.938839 0,0 -5.408939,-2.421094 -4.197155,-3.762066 0,0 1.417235,-0.350099 4.061138,0.225617 -1.160328,-0.969838 -2.81062,-2.343614 -2.88376,-3.425944 -0.07314,-1.082331 1.059569,-1.502369 1.059569,-1.502369 0,0 -3.681055,-3.53453 -2.216545,-5.013103 1.46451,-1.478573 4.299186,2.047629 4.299186,2.047629 0,0 -1.983435,-4.591134 -1.111687,-5.3349 0.871749,-0.743766 2.760301,0.460642 3.753504,2.941176 -0.03989,-1.493046 -0.441061,-2.407978 0.203427,-2.86219 0.644488,-0.454212 1.792928,0.500091 1.792928,0.500091 z"
         style="display:inline;fill:#ffffff;fill-rule:evenodd;stroke:#ffffff;stroke-width:0.26458332px;stroke-linecap:butt;stroke-linejoin:miter;stroke-opacity:1" />
      <path
         sodipodi:nodetypes="czczzzzzzzzzcczccczccczzccczzzccczccssczzzczcscscczzzzc"
         inkscape:label="AileAvant"
         inkscape:connector-curvature="0"
         id="path954"
         d="m 53.018803,100.31377 c 0,0 1.465208,1.22277 4.380497,0.82131 2.915289,-0.40146 11.833506,-5.848741 11.833506,-5.848741 0,0 -0.974193,-0.354123 -0.408051,-5.032639 0.566142,-4.678516 4.810507,-18.452651 7.344933,-22.034802 2.534426,-3.582151 1.29477,-0.463826 2.448312,-1.904243 1.153542,-1.440417 2.077682,-5.963547 3.400433,-7.208917 1.322751,-1.24537 1.717879,-0.198249 2.720345,-1.088138 1.002466,-0.889889 1.936676,-2.40599 2.448311,-4.488572 0.511635,-2.082582 -0.620338,-5.644936 -0.136017,-7.752985 0.484321,-2.108049 0.764177,-2.95769 2.361994,-4.659119 1.597817,-1.701429 4.498925,-3.987414 7.567268,-4.454041 3.068346,-0.466627 9.581476,2.244926 9.581476,2.244926 L 105.27739,9.0513716 c 0,0 -0.11486,-5.6021469 -2.31229,-5.5767093 -2.19743,0.025438 -2.58433,6.6648477 -2.58433,6.6648477 l 0.40805,18.226318 -4.352554,-21.3547158 c 0,0 -1.373616,-4.1196472 -3.128399,-3.8084844 -1.754783,0.3111628 -1.90424,5.4406921 -1.90424,5.4406921 l 3.9445,20.8106471 -8.161038,-18.498353 c 0,0 -0.40091,-6.5210691 -2.448311,-6.8008651 -2.047401,-0.279796 -2.306657,1.4737504 -2.992379,4.2165364 -0.685722,2.7427857 1.496189,11.6974877 1.496189,11.6974877 l 5.03264,10.745366 -7.344934,-10.881383 c 0,0 -2.200877,-5.684657 -2.992382,-7.344934 -0.791505,-1.660277 -0.312992,-2.8786429 -1.49619,-2.7203465 -1.183198,0.1582965 -0.776824,1.7747965 -0.952121,3.9445015 -0.175297,2.169705 0.680087,8.977142 0.680087,8.977142 l 4.488572,8.161037 -5.304676,-6.392812 c 0,0 -0.3712,-2.969438 -1.632207,-2.720346 -1.261007,0.249092 -0.680088,4.488571 -0.680088,4.488571 l 2.856365,5.98476 c 0,0 -3.477325,-0.79864 -3.672467,-2.312294 -0.195792,-1.518696 -1.617964,-0.09083 -1.617964,-0.09083 -0.28852,0.948473 1.37745,4.102744 1.37745,4.102744 0,0 -2.374029,0.149518 -2.936386,1.016499 -0.562358,0.866981 0.561615,2.177673 0.267824,3.081392 -0.29379,0.903719 -1.564034,1.224814 -1.710911,1.969205 -0.146877,0.744391 0.621986,1.841623 0.621986,1.841623 0,0 -1.062188,0.469929 -0.898624,1.27305 0.163564,0.803121 2.856365,1.768224 2.856365,1.768224 0,0 -3.216211,-0.33293 -4.216537,0.680087 -0.55238,0.559389 -0.346161,2.332923 -0.346161,2.332923 0,0 -1.738623,1.04033 -1.694097,1.883612 0.06433,1.218253 2.720345,2.448312 2.720345,2.448312 l -3.53645,0.408053 c 0,0 -2.314593,10.3276 -3.672466,14.00978 -1.357873,3.68218 -2.617893,4.208376 -3.944501,8.161039 -1.326608,3.952663 -2.678075,11.852993 -3.128399,15.641989 -0.450324,3.788996 -0.498487,5.295866 -0.272034,6.936883 0.226453,1.641017 0.924176,2.85115 0.924176,2.85115 z"
         style="fill:#000000;fill-rule:evenodd;stroke:#000000;stroke-width:0.26458332px;stroke-linecap:butt;stroke-linejoin:miter;stroke-opacity:1" />
      <path
         sodipodi:nodetypes="cccccccc"
         inkscape:label="AileHaut"
         inkscape:connector-curvature="0"
         id="path956"
         d="m 73.041289,46.592145 -5.984761,-16.730127 -7.982382,-2.238529 -4.020295,5.291137 2.345449,10.68514 8.025022,12.10554 7.889004,-8.433073 z"
         style="display:none;fill:#ffffff;fill-rule:evenodd;stroke:#ffffff;stroke-width:0.26458332px;stroke-linecap:butt;stroke-linejoin:miter;stroke-opacity:1" />
      <path
         inkscape:label="AileFond"
         sodipodi:nodetypes="czcscscczzczzzzcczzcczcccsssssssssssssszzczzzzczzzzzczzzzzzczzzzzzzczzzzc"
         inkscape:connector-curvature="0"
         id="path958"
         d="m 67.056528,29.862018 c 0,0 -0.824838,-1.167829 -1.552481,-0.788627 -0.727643,0.379201 -0.825491,0.591245 -0.443874,3.150726 -0.510883,-1.223038 -1.25674,-2.96879 -3.300067,-3.050435 -1.849054,-0.07388 -0.583412,3.832788 0.65825,5.444159 -1.932238,-2.428138 -4.267518,-3.427597 -4.611005,-1.491407 -0.171744,0.968095 0.826799,2.980355 2.528364,4.456881 -3.485506,1.046308 1.824191,4.928313 1.824191,4.928313 0,0 -3.558219,-1.341779 -4.148527,-0.204026 -0.590308,1.137753 1.409663,2.185814 2.176278,2.788354 0.766615,0.60254 2.108266,0.952121 2.108266,0.952121 0,0 -1.23071,0.541925 -1.564198,1.156148 -0.333488,0.614223 -0.614693,1.013462 -0.136017,2.244285 0.478676,1.230823 2.545431,-2.196389 4.080518,3.944501 1.535087,6.14089 -8.446248,23.399503 -9.929262,30.739911 C 53.26395,91.47333 53.658825,96.71452 53.658825,96.71452 l -3.060391,0.340046 c 0,0 -2.250947,-3.588055 -2.788353,-5.372685 -0.537406,-1.78463 0.121785,-2.89931 -0.544068,-5.100648 -0.665853,-2.201338 -4.012512,-7.684979 -4.012512,-7.684979 L 41.82532,77.944135 c 0,0 -2.515484,-8.091136 -3.060388,-11.085412 -0.544904,-2.994276 -0.612079,-6.732854 -0.612079,-6.732854 l 2.516319,-1.564201 -2.92437,-1.49619 c 0,0 0.428668,-1.083322 0.262224,-1.677649 -0.166444,-0.594327 -0.927999,-0.69966 -1.190371,-1.708989 -0.131186,-0.504665 0.365467,-0.520478 0.223522,-1.09527 -0.141946,-0.574793 -0.922492,-1.708563 -1.066383,-2.331067 -0.143892,-0.622504 0.984294,-0.627836 0.847271,-1.275636 -0.137023,-0.6478 -1.539253,-1.938066 -1.660592,-2.588747 -0.121339,-0.650681 0.915365,-1.141626 0.766641,-2.02567 -0.148723,-0.884044 -1.482874,-2.161187 -1.686154,-3.113415 -0.10164,-0.476114 0.860479,-0.09658 0.766582,-0.720933 -0.0939,-0.624354 -1.243811,-2.252599 -1.333362,-2.931738 -0.08955,-0.679139 1.14602,-0.541551 1.004466,-1.420301 -0.141553,-0.87875 -1.660231,-2.773838 -1.751279,-3.282176 -0.364193,-2.033353 0.615204,-0.62368 0.499623,-2.311726 -0.115581,-1.688047 -1.326146,-3.932122 -0.986864,-4.800662 1.357108,-3.47416 0.993011,0.05221 1.224155,-1.020129 0.231144,-1.072342 -3.339959,-3.248319 -2.176277,-4.488571 1.163682,-1.240252 4.828614,1.972251 4.828614,1.972251 0,0 -4.052027,-5.505206 -4.624586,-7.616969 -0.572559,-2.111763 -1.434152,-3.733537 0.06801,-4.216536 1.502162,-0.4829995 2.018081,2.809622 3.128396,4.216536 1.110315,1.406914 2.081721,2.779409 3.53645,4.216536 1.454729,1.437127 5.236667,4.284545 5.236667,4.284545 0,0 -0.439485,-2.605297 -1.360175,-5.712726 C 41.38069,14.309007 37.982359,7.5748797 37.744803,4.6308094 37.507247,1.6867391 37.234635,0.99463276 38.492896,0.55029028 c 1.258261,-0.44434248 1.02617,0.0699406 2.924374,2.51631992 1.898204,2.4463793 4.62392,10.0263978 6.528829,13.1936778 1.904909,3.16728 4.352554,6.05277 4.352554,6.05277 0,0 -2.545345,-4.760491 -3.196407,-7.208917 -0.651062,-2.448426 -0.91361,-4.99982 -0.748094,-7.2769253 0.165516,-2.2771055 -0.433296,-5.8858871 1.564198,-6.188787 1.997494,-0.3028999 2.387407,3.2562184 2.99238,4.8966229 0.604973,1.6404045 0.187936,2.8370009 0.748096,4.6925964 0.56016,1.855596 1.922535,4.481939 2.856362,6.256796 0.933827,1.774857 2.65234,4.420563 2.65234,4.420563 0,0 -1.045107,-4.034565 -1.428184,-5.57671 -0.383077,-1.542145 -0.751421,-2.369175 -0.884111,-3.672467 -0.13269,-1.303292 -0.229696,-3.0504579 0.136017,-4.0805189 0.365713,-1.030061 0.65711,-1.9544845 1.49619,-1.972251 0.83908,-0.017767 1.24494,1.0421317 1.632207,1.972251 0.387267,0.9301193 0.137369,1.8905549 0.340045,3.4684409 0.202676,1.577886 0.395696,3.748953 0.952121,5.984761 0.556425,2.235808 2.51632,7.344935 2.51632,7.344935 0,0 -0.411445,-2.819719 -0.272037,-3.808485 0.139408,-0.988766 0.02765,-1.989613 0.748097,-2.040259 0.72045,-0.05065 0.730585,0.972294 1.02013,1.904242 0.289545,0.931948 0.149471,2.260865 0.408051,3.672467 0.25858,1.411602 1.224154,4.760605 1.224154,4.760605 z"
         style="opacity:0.5;fill:#000000;fill-rule:evenodd;stroke:#000000;stroke-width:0.26458332px;stroke-linecap:butt;stroke-linejoin:miter;stroke-opacity:1" />
      <path
         sodipodi:nodetypes="czzzzzzzzc"
         inkscape:label="OmbreAile"
         inkscape:connector-curvature="0"
         id="path960"
         d="m 59.729761,100.75985 c 0,0 4.245598,-0.929713 6.566037,-0.63543 2.320439,0.29428 4.903988,1.84211 6.989654,2.5417 2.085666,0.69959 3.605967,1.85179 5.506998,1.69446 1.901031,-0.15733 3.868014,-1.04001 5.083384,-2.54169 1.21537,-1.50168 1.772287,-4.074047 1.482654,-5.718814 -0.289633,-1.644767 -0.782151,-2.414789 -2.329884,-3.388923 -1.547733,-0.974134 -4.319654,-1.532361 -6.777845,-1.059037 -2.458191,0.473324 -4.269145,2.634489 -7.017953,4.163388 -2.748808,1.528899 -9.503045,4.944346 -9.503045,4.944346 z"
         style="opacity:0.5;fill:#c8b7b7;fill-rule:evenodd;stroke:#c8b7b7;stroke-width:0.26458332px;stroke-linecap:butt;stroke-linejoin:miter;stroke-opacity:1" />
      <path
         inkscape:label="BecHaut"
         inkscape:connector-curvature="0"
         id="path900"
         d="m 162.24467,93.241023 -3.38892,1.482653 37.70176,3.81254 z"
         style="fill:#f4d7d7;fill-rule:evenodd;stroke:#f4d7d7;stroke-width:0.26458332px;stroke-linecap:butt;stroke-linejoin:miter;stroke-opacity:1" />
      <path
         style="fill:#782121;fill-rule:evenodd;stroke:#782121;stroke-width:0.37795275;stroke-linecap:butt;stroke-linejoin:miter;stroke-miterlimit:4;stroke-dasharray:none;stroke-opacity:1"
         d="m 589.86115,357.27101 -14.96662,4.90868 18.97424,7.89992 113.75623,-0.74563 z"
         transform="matrix(0.26458333,0,0,0.26458333,2.4061227,0.2736548)"
         id="path902"
         inkscape:connector-curvature="0"
         sodipodi:nodetypes="ccccc" />
      <path
         sodipodi:nodetypes="ssssssssssssss"
         inkscape:label="Œil"
         inkscape:connector-curvature="0"
         id="path906"
         d="m 150.7067,92.862621 c -0.20171,-0.08355 -0.4133,-0.176793 -0.56164,-0.336984 -0.13274,-0.143338 -0.3034,-0.293319 -0.2621,-0.524198 0.0413,-0.230879 0.36762,-0.415528 0.59909,-0.561639 0.26067,-0.164541 0.56097,-0.267025 0.86118,-0.336984 0.57336,-0.133611 1.17141,-0.129947 1.7598,-0.149772 0.71112,-0.02396 1.4285,-0.05317 2.13423,0.03744 0.42035,0.05397 0.8496,0.124597 1.23561,0.29954 0.37531,0.170096 0.70602,0.434269 1.01095,0.711411 0.42577,0.386962 1.01267,0.745884 1.12328,1.310492 0.0228,0.116195 -0.0166,0.267241 -0.11232,0.336984 -0.94814,0.691087 -2.34921,0.119347 -3.51962,0.03744 -0.83111,-0.05816 -1.6543,-0.21081 -2.47121,-0.374428 -0.60549,-0.121273 -1.22674,-0.212989 -1.79725,-0.449302 z"
         style="fill:#241c1c;fill-rule:evenodd;stroke:#241c1c;stroke-width:0.26458332px;stroke-linecap:butt;stroke-linejoin:miter;stroke-opacity:1" />
    </g>
  </g>
</svg>
