<?xml version="1.0" encoding="UTF-8" standalone="no"?>
<!-- Created with Inkscape (http://www.inkscape.org/) -->

<svg
   xmlns:dc="http://purl.org/dc/elements/1.1/"
   xmlns:cc="http://creativecommons.org/ns#"
   xmlns:rdf="http://www.w3.org/1999/02/22-rdf-syntax-ns#"
   xmlns:svg="http://www.w3.org/2000/svg"
   xmlns="http://www.w3.org/2000/svg"
   xmlns:xlink="http://www.w3.org/1999/xlink"
   xmlns:sodipodi="http://sodipodi.sourceforge.net/DTD/sodipodi-0.dtd"
   xmlns:inkscape="http://www.inkscape.org/namespaces/inkscape"
   id="svg1"
   sodipodi:docname="Simple-Dolphin.svg"
   viewBox="0 0 158.86482 101.0513"
   sodipodi:version="0.32"
   version="1.1"
   inkscape:output_extension="org.inkscape.output.svg.inkscape"
   inkscape:version="0.91 r13725"
   width="158.86482"
   height="101.0513">
  <defs
     id="defs3">
    <linearGradient
       id="linearGradient871">
      <stop
         id="stop872"
         style="stop-color:#ffffff;stop-opacity:0"
         offset="0" />
      <stop
         id="stop873"
         style="stop-color:#ffffff;stop-opacity:0"
         offset=".25" />
      <stop
         id="stop875"
         style="stop-color:#ffffff"
         offset="1" />
    </linearGradient>
    <linearGradient
       id="linearGradient849">
      <stop
         id="stop850"
         style="stop-color:#000000;stop-opacity:0"
         offset="0" />
      <stop
         id="stop851"
         style="stop-color:#000000;stop-opacity:.6875"
         offset="1" />
    </linearGradient>
    <linearGradient
       id="linearGradient843">
      <stop
         id="stop844"
         style="stop-color:#ffffff;stop-opacity:0"
         offset="0" />
      <stop
         id="stop845"
         style="stop-color:#ffffff;stop-opacity:.625"
         offset="1" />
    </linearGradient>
    <linearGradient
       id="linearGradient841"
       y2="285.73001"
       gradientUnits="userSpaceOnUse"
       x2="73.764"
       gradientTransform="scale(1.28,0.78127)"
       y1="-42.001999"
       x1="59.756001">
      <stop
         id="stop839"
         style="stop-color:#000000"
         offset="0" />
      <stop
         id="stop868"
         style="stop-color:#656565"
         offset=".29868" />
      <stop
         id="stop840"
         style="stop-color:#000000"
         offset="1" />
    </linearGradient>
    <linearGradient
       id="linearGradient842"
       y2="157.72"
       xlink:href="#linearGradient843"
       gradientUnits="userSpaceOnUse"
       y1="175.92"
       gradientTransform="scale(1.8463,0.54163)"
       x2="-62.599998"
       x1="45.620998" />
    <linearGradient
       id="linearGradient846"
       y2="117.69"
       xlink:href="#linearGradient843"
       gradientUnits="userSpaceOnUse"
       y1="55.660999"
       gradientTransform="scale(1.1451,0.87332)"
       x2="105.93"
       x1="21.58" />
    <linearGradient
       id="linearGradient848"
       y2="58.473999"
       xlink:href="#linearGradient849"
       gradientUnits="userSpaceOnUse"
       y1="55.992001"
       gradientTransform="scale(0.96478,1.0365)"
       x2="6.6167002"
       x1="4.3351998" />
    <linearGradient
       id="linearGradient852"
       y2="62.752998"
       xlink:href="#linearGradient843"
       gradientUnits="userSpaceOnUse"
       y1="53.410999"
       gradientTransform="scale(0.94532,1.0578)"
       x2="-3.1222"
       x1="14.34" />
    <linearGradient
       id="linearGradient853"
       y2="122.25"
       xlink:href="#linearGradient843"
       gradientUnits="userSpaceOnUse"
       y1="90.650002"
       gradientTransform="scale(0.98692,1.0133)"
       x2="-5.8161001"
       x1="-3.0425999" />
    <linearGradient
       id="linearGradient854"
       y2="133.7"
       xlink:href="#linearGradient843"
       gradientUnits="userSpaceOnUse"
       y1="88.199997"
       gradientTransform="scale(0.97322,1.0275)"
       x2="-29.790001"
       x1="-10.311" />
    <linearGradient
       id="linearGradient856"
       y2="79.112999"
       xlink:href="#linearGradient843"
       gradientUnits="userSpaceOnUse"
       y1="71.330002"
       gradientTransform="scale(0.94094,1.0628)"
       x2="9.1935997"
       x1="18.034" />
    <linearGradient
       id="linearGradient858"
       y2="66.610001"
       xlink:href="#linearGradient849"
       gradientUnits="userSpaceOnUse"
       x2="17.603001"
       gradientTransform="scale(0.92196,1.0846)"
       y1="66.610001"
       x1="10.114" />
    <linearGradient
       id="linearGradient859"
       y2="-19.962999"
       xlink:href="#linearGradient871"
       gradientUnits="userSpaceOnUse"
       y1="23.056999"
       gradientTransform="scale(0.86577,1.155)"
       x2="86.037003"
       x1="70.492996" />
    <linearGradient
       id="linearGradient860"
       y2="134.59"
       xlink:href="#linearGradient843"
       gradientUnits="userSpaceOnUse"
       x2="168.16"
       gradientTransform="scale(1.3285,0.75271)"
       y1="134.59"
       x1="149.60001" />
    <linearGradient
       id="linearGradient862"
       y2="133.72"
       gradientUnits="userSpaceOnUse"
       x2="50.116001"
       gradientTransform="scale(1.6992,0.58852)"
       y1="120.87"
       x1="27.84">
      <stop
         id="stop864"
         style="stop-color:#3d3d3d;stop-opacity:0"
         offset="0" />
      <stop
         id="stop867"
         style="stop-color:#626262"
         offset=".25" />
      <stop
         id="stop866"
         style="stop-color:#575757"
         offset=".6731" />
      <stop
         id="stop865"
         style="stop-color:#222222"
         offset="1" />
    </linearGradient>
    <linearGradient
       id="linearGradient870"
       y2="35.042"
       xlink:href="#linearGradient871"
       gradientUnits="userSpaceOnUse"
       y1="61.418999"
       gradientTransform="scale(1.2893,0.77563)"
       x2="115.29"
       x1="85.117996" />
    <linearGradient
       id="linearGradient3035"
       x1="18.034"
       xlink:href="#linearGradient843"
       gradientUnits="userSpaceOnUse"
       x2="39.280998"
       gradientTransform="scale(2.125,0.47059)"
       y1="160.44"
       y2="160.44"
       inkscape:collect="always" />
  </defs>
  <sodipodi:namedview
     id="base"
     bordercolor="#666666"
     inkscape:pageshadow="2"
     inkscape:window-y="0"
     pagecolor="#ffffff"
     inkscape:window-maximized="0"
     inkscape:window-width="1585"
     inkscape:zoom="3.0219976"
     inkscape:window-x="0"
     showgrid="false"
     borderopacity="1.0"
     inkscape:current-layer="svg1"
     inkscape:cx="75.363782"
     inkscape:cy="40.52899"
     inkscape:window-height="948"
     showborder="false"
     inkscape:pageopacity="0.0"
     fit-margin-top="0"
     fit-margin-left="0"
     fit-margin-right="0"
     fit-margin-bottom="0" />
  <g
     id="g1007"
     transform="matrix(0.61554,0.045012,-0.013369,0.58735,101.85226,-66.118085)">
    <path
       id="path923"
       inkscape:connector-curvature="0"
       sodipodi:nodetypes="ccccccccccccccccccc"
       style="fill:#000000;fill-opacity:0.05785098;fill-rule:evenodd;stroke-width:0.25"
       d="m -56.037,125.72 c -11.056,3.57 -15.595,16.36 -21.26,25.55 -9.994,6.09 -21.953,10.93 -32.083,17.65 -17.69,8.51 -29.09,25.99 -34.01,44.55 -1.22,10.84 -13.09,27.68 -7.16,31.95 5.91,4.51 24,-19.9 39.53,-22.33 8.81,-0.1 20.633,6.81 27.633,0.85 -10.48,-3.52 -4.041,-6.36 3.208,-4.79 11.429,-0.91 23.126,-6.57 29.861,-15.96 33.799,-8.42 73.723,0.06 96.387,27.77 1.449,9.39 -11.876,18.9 -5.604,30.03 -0.661,6.03 9.258,19.68 9.323,6.72 2.311,-8.51 7.515,-24.6 19.449,-18 7.75,-3.69 23.707,15.73 20.685,0.44 C 84.57,237.48 71.014,229.54 57.494,229.29 42.476,212.03 28.357,193.96 13.523,176.59 -3.952,160.23 -26.941,147.99 -51.504,149.7 c -12.693,-0.51 -5.72,-18.33 -3.032,-23.84 -0.501,-0.05 -1.502,-0.14 -1.502,-0.14 z" />
    <path
       id="path973"
       style="fill:#000000;fill-opacity:0.05785098;fill-rule:evenodd;stroke-width:0.25"
       inkscape:connector-curvature="0"
       d="m -56.781,124.12 c -11.242,4.36 -15.977,16.23 -21.719,25.85 -15.386,8.6 -31.8,15.82 -45.42,27.11 -12.05,10.6 -18.79,25.81 -22.4,41.17 -2.54,8.57 -7.8,16.62 -7.24,25.81 1.73,4.76 8.23,3.78 11.18,0.78 10.12,-6.79 18.97,-16.16 30.94,-19.59 9,-0.56 18.154,5.16 26.887,1.29 1.704,-0.44 5.318,-2.99 2.356,-4.14 -5.159,-1.38 -1.766,-2.03 1.759,-1.71 8.138,-0.8 16.123,-3.37 22.754,-8.25 4.639,-2.97 7.719,-8.81 13.903,-8.75 27.27,-4.96 57.063,0.94 78.781,18.63 3.118,3.27 7.758,6.04 9.195,10.34 -0.982,9.04 -9.226,16.91 -6.326,26.36 1.387,5.23 2.562,11.3 7.136,14.66 2.762,1.92 6.655,-0.11 6.353,-3.56 1.366,-7.35 3.917,-15.47 10.454,-19.74 3.501,-0.72 6.929,1.28 10.462,0.9 6.189,0.96 11.157,6.42 17.445,6.16 4.55,-3.75 0.975,-10.26 -1.735,-14.05 C 81.257,233.98 69.948,228.28 58.443,227.69 43.17,209.56 28.166,191.15 12.47,173.41 -4.182,158.47 -25.787,147.62 -48.615,148.02 c -4.255,0.63 -9.146,-2.3 -8.252,-7.06 -0.106,-5.93 2.915,-11.22 4.81,-16.68 -1.563,-0.02 -3.189,-0.21 -4.719,-0.16 z" />
    <path
       id="path978"
       style="fill:#000000;fill-opacity:0.05785098;fill-rule:evenodd;stroke-width:0.25"
       inkscape:connector-curvature="0"
       d="m -49.625,122.19 c -4.247,0.1 -8.759,-0.79 -12.281,2.19 -8.951,5.69 -13.131,15.94 -18.818,24.27 -17.103,9.74 -35.696,17.85 -49.706,32.04 -11.08,12.33 -15.6,28.74 -20.74,44.06 -2.55,6.6 -4.89,13.6 -4.42,20.72 3.1,5.82 11.21,4.4 15.43,0.72 9.6,-6.74 18.61,-15.11 30.16,-18.31 9.49,0.56 19.806,4.5 28.75,-0.38 2.624,-0.91 0.546,-5.28 3.751,-4.93 10.559,-1.49 20.166,-6.8 27.937,-13.98 8.378,-4.26 18.05,-3.79 27.189,-3.88 22.99,0.51 46.215,9.34 62.344,25.96 3.096,4.99 -1.651,10.33 -2.807,15.22 -2.918,6.8 -2.334,14.5 0.722,21.11 1.54,4.56 5.284,10.41 10.781,9.46 6.051,-2 4.946,-9.85 7.51,-14.52 1.782,-4.9 6.02,-10.59 11.928,-8.63 7.488,0.64 13.777,6.05 21.27,6.25 5.272,-1.33 5.019,-8.44 2.928,-12.36 -3.817,-8.74 -12.114,-15.03 -20.838,-18.4 -4.6,-2.37 -10.484,-1.42 -14.012,-5.7 -13.862,-16.11 -27.247,-32.69 -41.656,-48.35 -7.3999,-8.91 -17.542,-15.08 -27.793,-20.13 -11.7,-5.71 -24.645,-8.54 -37.631,-8.86 -4.904,-0.04 -5.813,-5.89 -4.077,-9.51 1.198,-4.85 3.1,-9.46 4.923,-14.09 -0.192,0 -0.755,0.02 -0.844,0.03 z" />
    <path
       id="path983"
       style="fill:#000000;fill-opacity:0.05785098;fill-rule:evenodd;stroke-width:0.25"
       inkscape:connector-curvature="0"
       d="m -46.281,119.88 c -7.083,0.47 -15.713,-0.43 -20.588,5.91 -7.243,6.28 -10.852,15.58 -17.444,22.34 -17.037,10.04 -35.627,18.41 -49.307,33.09 -11.15,14.68 -16.23,32.79 -21.9,50.06 -1.18,5.32 -3.5,11.38 -1.16,16.55 4.49,5.88 13.17,3.66 18.31,-0.07 9.68,-6.41 18.77,-15.13 30.51,-17.26 9.356,0.76 19.741,3.38 28.391,-1.47 1.363,-3.11 3.754,-4.96 7.119,-5.36 8.916,-2.17 16.893,-7.1 23.881,-12.95 13.366,-4.35 27.777,-4.28 41.491,-1.78 16.818,3.12 32.649,11.09 44.916,23.06 1.476,7.73 -5.362,14.21 -4.348,22.02 -0.736,8.16 2.673,16.24 7.691,22.48 4.154,3.35 11.967,2.5 13.5,-3.19 2.534,-5.99 3.306,-13.87 9.5,-17.37 9.479,-1.55 17.577,7.41 27.031,5.09 5.826,-3.15 5.074,-11.31 2.124,-16.28 C 87.927,234.44 77.227,228.12 66.281,224.95 57.466,222.55 53.165,213.76 47.189,207.65 35.056,193.13 22.287,179.13 9.357,165.34 -7.224,152.16 -28.022,144.42 -49.212,143.5 c -4.648,-1.89 -1.827,-7.89 -0.614,-11.3 1.466,-4.12 2.924,-8.24 4.395,-12.36 -0.191,0.01 -0.754,0.03 -0.843,0.04 z" />
    <path
       id="path1006"
       style="fill:#000000;fill-opacity:0.05785098;fill-rule:evenodd;stroke-width:0.25"
       inkscape:connector-curvature="0"
       d="m -42.156,116.91 c -9.528,0.58 -21.152,-0.27 -27.783,8 -8.113,8.66 -13.379,20.41 -24.463,25.87 -14.878,9.02 -31.028,17.04 -42.548,30.37 -10.23,15.73 -16.41,33.6 -21.71,51.48 -1.19,6.01 -3.45,13.91 1.72,18.68 5.43,4.39 13.21,2.72 18.67,-0.77 9.95,-5.09 18.21,-13.85 29.33,-16.54 10.161,-1.4 21.157,2.78 30.596,-2.62 5.694,-6.56 15.314,-6.39 21.922,-11.66 6.417,-4.22 13.204,-8.75 21.211,-8.57 23.732,-2.99 48.653,4.32 67.055,19.57 4.207,2.49 2.832,7.47 1.44,11.24 -4.679,12.11 -2.216,26.87 6.528,36.57 5.733,4.7 16.213,2.45 17.92,-5.26 2.205,-5.05 3.105,-11.83 8.58,-14.49 9.026,0.93 17.633,7.1 26.844,4.47 6.615,-4.56 5.806,-13.99 2.236,-20.22 C 89.534,233.56 79.975,227.01 69.653,223.2 57.405,218.31 50.571,206.24 41.758,197.14 30.859,184.83 19.796,172.6 8.178,160.99 -8.05,149.18 -27.626,142.09 -47.69,140.81 c -2.092,-5.38 2.135,-10.67 3.415,-15.82 0.185,-2.14 3.918,-7.51 2.117,-8.08 z" />
  </g>
  <g
     id="g878"
     transform="matrix(0.62258,0.045409,-0.045409,0.62258,15.286259,2.9369145)">
    <path
       id="path826"
       inkscape:connector-curvature="0"
       sodipodi:nodetypes="czccczczzczzzzzzzzccczz"
       style="fill:url(#linearGradient841);fill-rule:evenodd"
       d="m -11.22,108.88 c -5.564,1.76 2.5702,-13.439 2.5702,-13.439 0,0 3.5627,-41.735 30.538,-58.531 26.9753,-16.796 38.681,-20.868 38.681,-20.868 0,0 13.174,-27.242 21.827,-26.733 5.323,-0.031 -0.538,3.133 -1.977,7.9015 -1.35,4.8586 -1.134,14.76 2.938,15.778 4.072,1.018 10.387,-1.054 26.583,2.545 17.63,3.959 40.72,21.377 47.33,30.538 6.62,9.161 38.68,46.825 38.68,46.825 25.79,1.018 35.17,23.134 33.09,25.954 -2.09,3.08 -0.26,1.87 -3.06,1.02 -2.8,-0.85 -7.25,-5.89 -13.74,-6.11 -6.74,-0.21 -10.73,-2.37 -13.74,-2.03 -3.14,0.34 -2.8,7.46 -7.89,11.83 -4.96,4.37 0.08,11.75 -4.33,13.62 -4.15,1.73 -8.39,-13.92 -8.65,-20.87 -0.25,-6.96 6.96,-15.36 8.14,-18.834 1.19,-3.478 -34.86,-45.806 -98.48,-30.537 -3.563,8.652 -36.773,15.65 -36.773,15.65 -7.408,1.195 9.869,5.062 3.352,6.257 -14.878,3.851 -19.066,-4.709 -30.398,-1.425 -11.331,3.283 -29.128,19.709 -34.691,21.459 z" />
    <path
       id="path837"
       style="fill:url(#linearGradient842);fill-rule:evenodd"
       inkscape:connector-curvature="0"
       d="m 11.157,84.973 c 0,0 41.747,-37.429 65.14,-35.989 23.393,1.44 53.983,0 70.183,10.077 16.19,10.077 -30.59,-2.519 -46.07,1.799 C 84.934,65.179 31.311,83.174 21.594,87.492 11.876,91.811 4.679,91.451 11.157,84.973 Z" />
    <path
       id="path833"
       inkscape:connector-curvature="0"
       sodipodi:nodetypes="cczzczzc"
       style="fill:url(#linearGradient846);fill-rule:evenodd"
       d="m -4.6786,82.814 c 0,0 -2.3664,5.355 0.8726,5.714 3.239,0.36 7.4049,-4.994 10.644,-11.112 C 10.0766,70.937 23.033,47.544 43.547,41.786 64.061,36.028 77.737,34.588 81.336,30.27 84.934,25.951 83.855,19.833 65.14,21.272 46.786,22.712 25.552,36.028 16.915,44.665 8.2775,52.943 1.44,63.02 -4.679,82.814 Z" />
    <path
       id="path827"
       inkscape:connector-curvature="0"
       sodipodi:nodetypes="ccz"
       style="fill:url(#linearGradient859);fill-rule:evenodd"
       d="M 61.377,17.367 C 63.406,19.003 77.144,-9.871 81.691,-9.729 76.264,-12.146 59.422,15.874 61.377,17.367 Z" />
    <path
       id="path828"
       inkscape:connector-curvature="0"
       sodipodi:nodetypes="ccz"
       style="fill:url(#linearGradient848);fill-rule:evenodd"
       d="M 9.0367,55.487 C 7.9551,54.596 4.0743,56.887 2.0384,61.849 0.0026,66.811 9.991,56.378 9.0367,55.487 Z" />
    <path
       id="path829"
       inkscape:connector-curvature="0"
       sodipodi:nodetypes="cczc"
       style="fill:url(#linearGradient852);fill-rule:evenodd"
       d="m 2.1657,62.994 c 0,0 6.7283,-5.068 6.6011,-7.74 1.5272,0.636 0.9061,3.605 -1.0025,5.577 -1.9086,2.099 -4.7079,3.69 -5.5986,2.163 z" />
    <path
       id="path830"
       style="fill:url(#linearGradient862);fill-rule:evenodd"
       inkscape:connector-curvature="0"
       d="M 32.322,80.172 59.297,63.376 c 0,0 1.781,5.598 7.634,5.344 5.853,-0.255 21.631,-5.344 21.377,-2.29 C 88.053,69.483 72.021,83.734 55.225,82.716 38.429,81.699 32.322,80.172 32.322,80.172 Z" />
    <path
       id="path831"
       inkscape:connector-curvature="0"
       sodipodi:nodetypes="cccc"
       style="fill:url(#linearGradient3035);fill-rule:evenodd"
       d="m 41.738,78.009 c -1.442,-1.188 -4.793,1.442 -2.8,1.781 1.018,0.509 31.302,3.69 44.535,-9.289 -15.015,5.09 -16.542,9.798 -41.735,7.508 z" />
    <path
       id="path832"
       inkscape:connector-curvature="0"
       sodipodi:nodetypes="czcz"
       style="fill:url(#linearGradient860);fill-rule:evenodd"
       d="m 200.15,94.423 c -1.1,-0.464 -1.93,0.806 -1.02,1.399 1,0.548 14.29,1.833 24.28,12.478 C 216.8,97.623 201.39,94.526 200.15,94.423 Z" />
    <path
       id="path857"
       inkscape:connector-curvature="0"
       sodipodi:nodetypes="czzc"
       style="fill:url(#linearGradient858);fill-rule:evenodd"
       d="m 16.162,72.664 c 0,0 -2.036,-1.526 -4.326,1.273 -2.1631,2.799 -3.181,4.962 -2.0359,6.235 1.1449,1.145 7.1259,-2.8 6.3619,-7.508 z" />
    <path
       id="path834"
       style="fill:url(#linearGradient856);fill-rule:evenodd"
       inkscape:connector-curvature="0"
       d="m 16.375,72.917 c 0,0 0.54,3.599 -3.059,5.938 -3.5989,2.339 1.44,1.08 1.44,1.08 0,0 4.498,-2.34 3.958,-4.319 -0.539,-1.979 -1.619,-3.599 -2.339,-2.699 z" />
    <path
       id="path835"
       inkscape:connector-curvature="0"
       sodipodi:nodetypes="cccc"
       style="fill:url(#linearGradient853);fill-rule:evenodd"
       d="m -11.195,103.97 c -1.145,0.63 -1.527,1.52 -0.509,1.78 C -10.686,106 8.782,92.514 8.146,84.752 1.5295,92.896 -8.777,102.69 -11.195,103.97 Z" />
    <path
       id="path836"
       inkscape:connector-curvature="0"
       sodipodi:nodetypes="cccc"
       style="fill:url(#linearGradient854);fill-rule:evenodd"
       d="m -10.554,106.09 c -1.654,1.15 -2.29,1.66 -0.763,2.55 0.763,0.89 23.921,-15.144 25.321,-27.614 -5.7262,12.597 -22.522,24.044 -24.558,25.064 z" />
    <path
       id="path869"
       style="fill:url(#linearGradient870);fill-rule:evenodd"
       inkscape:connector-curvature="0"
       d="m 87.094,16.594 c 0,0 39.586,-2.879 71.256,33.83 C 190.02,87.133 88.533,38.907 86.374,28.83 84.215,18.753 87.094,16.594 87.094,16.594 Z" />
  </g>
  <metadata
     id="metadata58">
    <rdf:RDF>
      <cc:Work>
        <dc:format>image/svg+xml</dc:format>
        <dc:type
           rdf:resource="http://purl.org/dc/dcmitype/StillImage" />
        <cc:license
           rdf:resource="http://creativecommons.org/publicdomain/zero/1.0/" />
        <dc:publisher>
          <cc:Agent
             rdf:about="http://openclipart.org/">
            <dc:title>Openclipart</dc:title>
          </cc:Agent>
        </dc:publisher>
        <dc:title></dc:title>
      </cc:Work>
      <cc:License
         rdf:about="http://creativecommons.org/publicdomain/zero/1.0/">
        <cc:permits
           rdf:resource="http://creativecommons.org/ns#Reproduction" />
        <cc:permits
           rdf:resource="http://creativecommons.org/ns#Distribution" />
        <cc:permits
           rdf:resource="http://creativecommons.org/ns#DerivativeWorks" />
      </cc:License>
    </rdf:RDF>
  </metadata>
</svg>
