<?xml version="1.0" encoding="UTF-8" standalone="no"?>
<!-- Created with Inkscape (http://www.inkscape.org/) -->
<svg xmlns:inkscape="http://www.inkscape.org/namespaces/inkscape" xmlns:rdf="http://www.w3.org/1999/02/22-rdf-syntax-ns#" xmlns="http://www.w3.org/2000/svg" xmlns:xlink="http://www.w3.org/1999/xlink" xmlns:ns1="http://sozi.baierouge.fr" xmlns:cc="http://creativecommons.org/ns#" xmlns:sodipodi="http://sodipodi.sourceforge.net/DTD/sodipodi-0.dtd" xmlns:dc="http://purl.org/dc/elements/1.1/" id="svg2" xml:space="preserve" viewBox="0 0 163.25 131.9" version="1.1" inkscape:version="0.91 r13725">
  <defs id="defs6">
    <clipPath id="clipPath18">
      <path id="path20" d="m19.121 30.56c12.746 3.496 28.145 5.242 46.199 5.242 18.028 0 33.414-1.746 46.16-5.242 12.747-3.492 19.118-7.707 19.118-12.641 0-4.957-6.371-9.183-19.118-12.679-12.746-3.493-28.132-5.239-46.16-5.239-18.054 0-33.453 1.746-46.199 5.239-12.75 3.496-19.121 7.722-19.121 12.679 0 4.938 6.371 9.145 19.121 12.641z" inkscape:connector-curvature="0"/>
    </clipPath>
    <clipPath id="clipPath26">
      <path id="path28" d="m0.0000037771 29.659h163.75v173.42h-163.75v-173.42z" inkscape:connector-curvature="0"/>
    </clipPath>
    <radialGradient id="radialGradient30" gradientUnits="userSpaceOnUse" cy="114.8" cx="81.4" r="70.363">
      <stop id="stop32" style="stop-color:#ffffff;stop-opacity:0.4" offset="0"/>
      <stop id="stop34" style="stop-color:#ffffff;stop-opacity:0" offset="1"/>
    </radialGradient>
    <mask id="mask36">
      <g id="g38">
        <g id="g40" clip-path="url(#clipPath26)">
          <path id="path42" style="fill:url(#radialGradient30)" d="m0.0000037771 29.659h163.75v173.42h-163.75v-173.42z" inkscape:connector-curvature="0"/>
        </g>
      </g>
    </mask>
    <radialGradient id="radialGradient46" gradientUnits="userSpaceOnUse" cy="114.8" cx="81.4" r="70.363">
      <stop id="stop48" style="stop-color:#000000" offset="0"/>
      <stop id="stop50" style="stop-color:#000000" offset="1"/>
    </radialGradient>
    <clipPath id="clipPath58">
      <path id="path60" d="m22.238 22.919c0.457 0 0.723 0.481 0.801 1.442v1.48c4.773 0.188 12.453 0.891 23.039 2.117 6.11 0.723 10.723 0.774 13.844 0.16 1.25-0.293 2.133-0.476 2.637-0.558 0.828-0.133 1.734-0.078 2.718 0.16 1.789 0.398 5.403 0.641 10.844 0.719 5.891 0.082 9.25 0.176 10.078 0.281 1.442 0.16 4.934-0.078 10.481-0.719 5.949-0.718 9.015-1.082 9.199-1.082 0.723 0 1.199-0.105 1.441-0.32 0.293-0.266 0.625-0.426 1-0.481 0.586-0.105 0.852-0.453 0.801-1.039-0.027-0.293-0.109-0.574-0.242-0.839l4.922-1.321-1.199-0.398c-0.856-0.266-1.454-0.403-1.801-0.403-0.375 0-0.84-0.16-1.403-0.476-0.453-0.27-1.265-0.828-2.437-1.684-0.906-0.664-1.414-1.093-1.52-1.277-0.019-0.055 0-0.082 0.059-0.082l-0.74-0.199c-0.617-0.242-0.977-0.52-1.082-0.84-0.106-0.32-0.52-0.613-1.242-0.883-0.399-0.16-1.079-0.398-2.04-0.719-0.613-0.238-0.972-0.574-1.078-1-0.027-0.078-0.043-0.547-0.043-1.398 0-0.348-0.504-0.68-1.519-1-1.385-0.43-2.424-0.895-3.115-1.402-0.934-0.692-1.961-1.106-3.082-1.239-0.934-0.109-3.481-0.308-7.641-0.601-3.281-0.321-4.84-0.559-4.68-0.719 0.028-0.027 0.172-0.055 0.442-0.082h-0.403c-0.691 0-1.945-0.09-3.757-0.277-1.84-0.188-2.973-0.282-3.399-0.282-0.91 0-2.363-0.175-4.363-0.519l-2.957-0.121c-2.082-0.028-3.469 0.015-4.16 0.121-0.696 0.105-1.989 0.144-3.883 0.117-0.985-0.023-2.078-0.066-3.278-0.117-0.562 0-1.375 0.531-2.441 1.601-0.348 0.344-0.894 0.532-1.641 0.559-0.425 0.027-0.984 0.012-1.679-0.043-0.531 0-1.719 0.187-3.559 0.562l-4.64 1.321-2.442 0.039c-1.68 0.051-2.691 0.133-3.039 0.238-0.641 0.188-1.625 0.602-2.961 1.242-1.574 0.774-2.426 1.332-2.558 1.68-0.106 0.32-0.493 0.547-1.161 0.68-0.347 0.082-0.679 0.121-1 0.121l-0.839 0.078c-0.641 0.082-1.188 0.226-1.641 0.441-0.641 0.321-1.067 0.575-1.281 0.762-0.293 0.32-0.504 0.785-0.637 1.398-0.109 0.481-0.734 0.879-1.883 1.2-1.492 0.402-2.519 0.8-3.078 1.199l2.48 1.601c1.094 0.536 2.012 0.801 2.758 0.801z" inkscape:connector-curvature="0"/>
    </clipPath>
    <clipPath id="clipPath66">
      <path id="path68" d="m21.25 99.95h121.25v28.75h-121.25v-28.75z" inkscape:connector-curvature="0"/>
    </clipPath>
    <radialGradient id="radialGradient70" gradientUnits="userSpaceOnUse" cy="114.35" cx="81.75" r="43.818">
      <stop id="stop72" style="stop-color:#ffffff;stop-opacity:.13730" offset="0"/>
      <stop id="stop74" style="stop-color:#ffffff;stop-opacity:.13730" offset=".17650"/>
      <stop id="stop76" style="stop-color:#ffffff;stop-opacity:.13730" offset="1"/>
    </radialGradient>
    <mask id="mask78">
      <g id="g80">
        <g id="g82" clip-path="url(#clipPath66)">
          <path id="path84" style="fill:url(#radialGradient70)" d="m21.25 99.95h121.25v28.75h-121.25v-28.75z" inkscape:connector-curvature="0"/>
        </g>
      </g>
    </mask>
    <radialGradient id="radialGradient88" gradientUnits="userSpaceOnUse" cy="114.35" cx="81.75" r="43.818">
      <stop id="stop90" style="stop-color:#000000" offset="0"/>
      <stop id="stop92" style="stop-color:#000000" offset=".17650"/>
      <stop id="stop94" style="stop-color:#000000" offset="1"/>
    </radialGradient>
    <radialGradient id="radialGradient108" gradientUnits="userSpaceOnUse" cy="84.543" cx="-122.5" gradientTransform="matrix(.0168 .79984 -.79984 .0168 135.24 106.68)" r="99.922">
      <stop id="stop110" style="stop-color:#9ddabe" offset="0"/>
      <stop id="stop112" style="stop-color:#a0dcc1" offset=".2353"/>
      <stop id="stop116" style="stop-color:#a9e1c8" offset="0.451"/>
      <stop id="stop118" style="stop-color:#b7ead4" offset=".6627"/>
      <stop id="stop120" style="stop-color:#ccf6e4" offset=".87840"/>
      <stop id="stop122" style="stop-color:#d8fded" offset=".97650"/>
      <stop id="stop124" style="stop-color:#d8fded" offset="1"/>
    </radialGradient>
    <clipPath id="clipPath154">
      <path id="path156" d="m70.398 73.482c-0.132 3.57-0.265 5.918-0.398 7.039-0.16 1.332-0.746 4.027-1.762 8.078l-1.437 5.723c2.398 1.597 4.265 2.398 5.597 2.398 0.59 0 1.204 0.16 1.84 0.48 0.27-0.398 0.524-0.894 0.762-1.48 0.508-1.172 1.027-3.613 1.559-7.32 0.48-3.227 1.363-5.852 2.64-7.879 1.414-2.238 2.602-4.574 3.563-7 0.504-1.227 0.851-2.227 1.039-3-0.453-0.586-0.856-1.188-1.199-1.801-1.094-2.027-2.094-5.625-3-10.801-0.321-1.918-0.055-3.824 0.796-5.719 0.43-0.957 0.895-1.718 1.403-2.281 0.801 2 1.332 4.403 1.597 7.203 0.161 1.571 0.602 2.571 1.321 3 0.961 0.559 1.586 1.161 1.883 1.797 0.476 1.067 0.824 1.762 1.039 2.082 0.32 0.481 0.707 1.121 1.16 1.918 1.945 3.442 3.144 5.563 3.597 6.364 1.79-2.403 2.989-4.188 3.602-5.364 0.078-0.133 0.586-1.199 1.52-3.199 0.48-1.012 1.039-1.879 1.679-2.598l1.602-1.8 0.121-4.762c0.133-3.438 0.355-5.785 0.68-7.039 0.183-0.692 0.453-2.52 0.796-5.481 0.321-2.773 0.79-5.148 1.403-7.121 0.664-2.16 1.105-4.707 1.32-7.636 0.078-1.469 0.106-2.723 0.078-3.762l-5.68-3.641c-4.106-2.668-6.946-4.586-8.52-5.758-1.785-1.336-3.375-2.226-4.762-2.679-1.332-0.457-3.05-0.696-5.16-0.723 1.227 0.988 2.309 2.293 3.242 3.922 0.907 1.57 1.266 2.664 1.082 3.277-0.109 0.375-0.59 0.949-1.441 1.723-0.906 0.851-1.625 1.879-2.16 3.078-2.508 5.762-4.305 9.961-5.399 12.602-0.562 1.386-1.187 3.265-1.882 5.64-0.641 2.184-1.282 3.973-1.918 5.36-0.668 1.519-0.895 3.718-0.68 6.597 0.238 3.043 0.266 4.84 0.078 5.403-0.371 1.144-0.625 2.093-0.758 2.839-0.082 0.559-0.226 2.012-0.441 4.36-0.133 1.414-0.266 4.066-0.403 7.961z" inkscape:connector-curvature="0"/>
    </clipPath>
    <clipPath id="clipPath162">
      <path id="path164" d="m82.5 15.15h50v108.75h-50v-108.75z" inkscape:connector-curvature="0"/>
    </clipPath>
    <radialGradient id="radialGradient166" gradientUnits="userSpaceOnUse" cy="69.45" cx="107.51" r="41.819">
      <stop id="stop168" style="stop-color:#ffffff;stop-opacity:.43920" offset="0"/>
      <stop id="stop170" style="stop-color:#ffffff;stop-opacity:.43920" offset=".55690"/>
      <stop id="stop172" style="stop-color:#ffffff;stop-opacity:.43920" offset="1"/>
    </radialGradient>
    <mask id="mask174">
      <g id="g176">
        <g id="g178" clip-path="url(#clipPath162)">
          <path id="path180" style="fill:url(#radialGradient166)" d="m82.5 15.15h50v108.75h-50v-108.75z" inkscape:connector-curvature="0"/>
        </g>
      </g>
    </mask>
    <radialGradient id="radialGradient184" gradientUnits="userSpaceOnUse" cy="69.45" cx="107.51" r="41.819">
      <stop id="stop186" style="stop-color:#437052" offset="0"/>
      <stop id="stop188" style="stop-color:#437052" offset=".55690"/>
      <stop id="stop190" style="stop-color:#437052" offset="1"/>
    </radialGradient>
  </defs>
  <g id="g10" transform="matrix(1.25 0 0 -1.25 0 131.9)">
    <g id="g12">
      <g id="g14">
        <g id="g16" clip-path="url(#clipPath18)">
          <g id="g22" transform="matrix(.8 0 0 .21336 -.0000030217 -6.8072)">
            <g id="g44" mask="url(#mask36)">
              <path id="path52" style="fill-rule:evenodd;fill:url(#radialGradient46)" d="m19.121 30.56c12.746 3.496 28.145 5.242 46.199 5.242 18.028 0 33.414-1.746 46.16-5.242 12.747-3.492 19.118-7.707 19.118-12.641 0-4.957-6.371-9.183-19.118-12.679-12.746-3.493-28.132-5.239-46.16-5.239-18.054 0-33.453 1.746-46.199 5.239-12.75 3.496-19.121 7.722-19.121 12.679 0 4.938 6.371 9.145 19.121 12.641z" inkscape:connector-curvature="0"/>
            </g>
          </g>
        </g>
      </g>
      <g id="g54">
        <g id="g56" clip-path="url(#clipPath58)">
          <g id="g62" transform="matrix(.8 0 0 .8 -.0000030217 -73.439)">
            <g id="g86" mask="url(#mask78)">
              <path id="path96" style="fill-rule:evenodd;fill:url(#radialGradient88)" d="m22.238 22.919c0.457 0 0.723 0.481 0.801 1.442v1.48c4.773 0.188 12.453 0.891 23.039 2.117 6.11 0.723 10.723 0.774 13.844 0.16 1.25-0.293 2.133-0.476 2.637-0.558 0.828-0.133 1.734-0.078 2.718 0.16 1.789 0.398 5.403 0.641 10.844 0.719 5.891 0.082 9.25 0.176 10.078 0.281 1.442 0.16 4.934-0.078 10.481-0.719 5.949-0.718 9.015-1.082 9.199-1.082 0.723 0 1.199-0.105 1.441-0.32 0.293-0.266 0.625-0.426 1-0.481 0.586-0.105 0.852-0.453 0.801-1.039-0.027-0.293-0.109-0.574-0.242-0.839l4.922-1.321-1.199-0.398c-0.856-0.266-1.454-0.403-1.801-0.403-0.375 0-0.84-0.16-1.403-0.476-0.453-0.27-1.265-0.828-2.437-1.684-0.906-0.664-1.414-1.093-1.52-1.277-0.019-0.055 0-0.082 0.059-0.082l-0.74-0.199c-0.617-0.242-0.977-0.52-1.082-0.84-0.106-0.32-0.52-0.613-1.242-0.883-0.399-0.16-1.079-0.398-2.04-0.719-0.613-0.238-0.972-0.574-1.078-1-0.027-0.078-0.043-0.547-0.043-1.398 0-0.348-0.504-0.68-1.519-1-1.385-0.43-2.424-0.895-3.115-1.402-0.934-0.692-1.961-1.106-3.082-1.239-0.934-0.109-3.481-0.308-7.641-0.601-3.281-0.321-4.84-0.559-4.68-0.719 0.028-0.027 0.172-0.055 0.442-0.082h-0.403c-0.691 0-1.945-0.09-3.757-0.277-1.84-0.188-2.973-0.282-3.399-0.282-0.91 0-2.363-0.175-4.363-0.519l-2.957-0.121c-2.082-0.028-3.469 0.015-4.16 0.121-0.696 0.105-1.989 0.144-3.883 0.117-0.985-0.023-2.078-0.066-3.278-0.117-0.562 0-1.375 0.531-2.441 1.601-0.348 0.344-0.894 0.532-1.641 0.559-0.425 0.027-0.984 0.012-1.679-0.043-0.531 0-1.719 0.187-3.559 0.562l-4.64 1.321-2.442 0.039c-1.68 0.051-2.691 0.133-3.039 0.238-0.641 0.188-1.625 0.602-2.961 1.242-1.574 0.774-2.426 1.332-2.558 1.68-0.106 0.32-0.493 0.547-1.161 0.68-0.347 0.082-0.679 0.121-1 0.121l-0.839 0.078c-0.641 0.082-1.188 0.226-1.641 0.441-0.641 0.321-1.067 0.575-1.281 0.762-0.293 0.32-0.504 0.785-0.637 1.398-0.109 0.481-0.734 0.879-1.883 1.2-1.492 0.402-2.519 0.8-3.078 1.199l2.48 1.601c1.094 0.536 2.012 0.801 2.758 0.801z" inkscape:connector-curvature="0"/>
            </g>
          </g>
        </g>
      </g>
      <g id="g98">
        <g id="g100">
          <g id="g106">
            <path id="path126" style="fill-rule:evenodd;fill:url(#radialGradient108)" d="m91.398 73.521c0.536-0.668 1.122-1.442 1.762-2.321 1.305-1.757 2.254-3.187 2.84-4.281 0.078-0.133 0.586-1.199 1.52-3.199 0.48-1.012 1.039-1.879 1.679-2.598l1.602-1.8 0.121-4.762c0.133-3.438 0.355-5.785 0.68-7.039 0.183-0.692 0.453-2.52 0.796-5.481 0.321-2.773 0.79-5.148 1.403-7.121 0.664-2.16 1.105-4.707 1.32-7.636 0.078-1.469 0.106-2.723 0.078-3.762l-5.68-3.641c-4.106-2.668-6.946-4.586-8.52-5.758-1.867-1.386-3.535-2.308-5-2.761-1.387-0.426-3.254-0.641-5.602-0.641-1.57 0-3.586-0.305-6.039-0.918-2.48-0.586-4.398-0.883-5.757-0.883-1.387 0-3.364-0.066-5.922-0.199-2.188-0.051-4.012 0.082-5.481 0.402-1.144 0.266-2.625 0.813-4.437 1.637-1.602 0.774-2.922 1.227-3.961 1.363-0.746 0.106-1.707 0.161-2.879 0.161-1.016 0-2.387 0.144-4.121 0.437-4.453 0.773-7.52 1.641-9.199 2.602-0.934 0.535-1.668 1-2.204 1.398l-2.238 2.441c-1.601 1.625-2.652 2.481-3.16 2.559 0.641 0.535 1.293 1.281 1.961 2.242 1.387 1.946 2.199 4 2.437 6.16 0.215 1.731 0.204 3.493-0.039 5.278-0.238 2.082-0.293 4.254-0.16 6.519 0.16 2.668 0.613 5.254 1.36 7.762 1.121 3.602 1.734 5.68 1.839 6.238 0.508 3.496 0.883 6.11 1.122 7.84 0.453 3.066 1.082 5.121 1.878 6.16 0.614 0.801 1.161 1.723 1.641 2.762 0.586 1.199 1.441 2.613 2.563 4.238l4.796 6.801c0.297 0.988 0.707 2.094 1.243 3.32 1.066 2.426 2.187 4.188 3.359 5.282 3.332 3.093 5.934 5.625 7.801 7.597 1.492 1.574 2.945 2.989 4.359 4.242l1.641 1.36c0.531-0.215 1.144-0.52 1.84-0.922 1.414-0.797 2.531-1.691 3.359-2.68 0.398-0.476 1.574-1.238 3.52-2.277 1.546-0.856 2.707-2.16 3.48-3.922 0.508-1.172 1.027-3.613 1.559-7.32 0.48-3.227 1.363-5.852 2.64-7.879 1.414-2.238 2.602-4.586 3.563-7.039 0.504-1.199 0.851-2.188 1.039-2.961 0.558 0.054 1.172 0.187 1.84 0.398 1.332 0.403 2.254 0.934 2.757 1.602 0.508 0.668 1.161 1.027 1.961 1.078l1.039-0.078z" inkscape:connector-curvature="0"/>
          </g>
        </g>
      </g>
      <path id="path128" style="fill-rule:evenodd;fill:#84c5a2" d="m56.078 72.443 1.203 6.199 0.278-0.68c0.242-0.535 0.414-1.015 0.519-1.441 0.188-0.719 0.281-2.055 0.281-4 0-0.266 0.028-0.801 0.082-1.602 0.051-0.851 0.028-1.652-0.082-2.398-0.187-1.254-1.519-3.387-4-6.399v-4.281l-0.679-0.398c-0.535-0.27-1.028-0.403-1.481-0.403-0.347 0-0.785 0.039-1.32 0.121-0.531 0.106-0.973 0.161-1.32 0.161-0.239 0-0.747-0.133-1.52-0.403-0.746-0.265-1.57-0.398-2.48-0.398-1.598 0-3.293 0.347-5.079 1.039 1.946 0.187 3.547 0.64 4.801 1.359 0.774 0.43 1.36 0.906 1.758 1.442 0.348 0.613 0.656 1.105 0.922 1.48 0.293 0.375 0.879 1.067 1.758 2.078 1.414 1.574 2.601 2.922 3.562 4.043 1.332 1.571 2.266 3.067 2.797 4.481z" inkscape:connector-curvature="0"/>
      <path id="path130" style="fill-rule:evenodd;fill:#84c5a2" d="m62.879 45.841c-1.254 0-2.492 0.266-3.719 0.801 2.668 0.344 4.801 0.785 6.399 1.316 1.015 0.321 1.988 1.27 2.921 2.84l1.079 2.242v-4.281c0-0.559-0.227-1-0.68-1.316-0.293-0.215-1.051-0.657-2.281-1.321-0.852-0.535-1.504-0.75-1.957-0.64-1.039 0.238-1.629 0.359-1.762 0.359z" inkscape:connector-curvature="0"/>
      <path id="path132" style="fill-rule:evenodd;fill:#def4eb" d="m50.359 78.122c0.348 0.161 2.653 0.332 6.922 0.52l-0.281-1.602v-1.879c0-1.226-0.441-2.293-1.32-3.199l-1.2-0.242c-1.066-0.105-2.265-0.105-3.601 0-1.305 0.105-2.266 0.039-2.879-0.199-0.48-0.188-1.652-0.653-3.52-1.399-2.668-0.906-4.093-1.363-4.281-1.363l10.16 9.363z" inkscape:connector-curvature="0"/>
      <path id="path134" style="fill-rule:evenodd;fill:#cff3e4" d="m68.039 53.079 1.52-0.039-1-1.718c-0.907-1.336-1.907-2.454-3-3.36-1.118-0.883-2.52-1.363-4.2-1.441-0.851-0.055-1.586-0.012-2.199 0.121 1.414 1.785 2.559 2.851 3.442 3.199 0.476 0.188 0.972 0.602 1.476 1.238 0.563 0.719 1.055 1.204 1.481 1.442 0.562 0.32 1.386 0.508 2.48 0.558z" inkscape:connector-curvature="0"/>
      <path id="path136" style="fill-rule:evenodd;fill:#9ddabe" d="m79.16 73.04c0.535 1.387 0.879 1.813 1.039 1.282 0.16-0.426 0.254-0.586 0.281-0.481 0.106 0.375 0.149 1.027 0.122 1.961-0.028 1.117-0.055 1.957-0.082 2.52 1.015-1.84 1.867-3.696 2.558-5.563 0.348-0.934 0.586-1.68 0.723-2.238l0.519 0.078c-1.547-1.465-2.75-3.664-3.601-6.598-0.586-1.922-0.946-3.785-1.082-5.601-0.051 0.48-0.344 1.64-0.879 3.48-0.559 1.867-0.879 3.281-0.961 4.242-0.106 1.387-0.078 2.465 0.082 3.239 0.133 0.586 0.562 1.812 1.281 3.679z" inkscape:connector-curvature="0"/>
      <path id="path138" style="fill-rule:evenodd;fill:#9ddabe" d="m74.602 87.962c0.773 0.481 1.371 1.117 1.796 1.918 0.215-1.68 0.43-2.984 0.641-3.918 0.32-1.469 0.789-2.816 1.402-4.043-0.293 0.27-0.507 0.508-0.64 0.723-0.266 0.586-0.563 0.879-0.879 0.879-0.402 0.027-1.176-0.266-2.32-0.879-0.989-0.563-1.907-1.309-2.762-2.242-0.426-0.481-0.746-0.891-0.961-1.239v6.399l3.723 2.402z" inkscape:connector-curvature="0"/>
      <path id="path140" style="fill-rule:evenodd;fill:#eafef5" d="m74.238 97.161c-0.531-0.214-1.144-0.359-1.84-0.441-1.625-0.238-3.492-1.039-5.597-2.398l-4.082 0.078c-2.934 0.027-5.012-0.067-6.239-0.278-0.96-0.187-1.972-0.363-3.039-0.523-0.668-0.156-1.347-0.52-2.043-1.078-0.636-0.559-1.25-1.492-1.839-2.801-0.371-0.773-1-2.16-1.879-4.16-0.586-1.199-2.375-2.813-5.36-4.84l2.078 3c0.297 0.988 0.707 2.094 1.243 3.32 1.066 2.426 2.187 4.188 3.359 5.282 3.332 3.093 5.934 5.625 7.801 7.597 1.492 1.574 2.945 2.989 4.359 4.242l1.641 1.36c0.531-0.215 1.144-0.52 1.84-0.922 1.414-0.797 2.531-1.691 3.359-2.68 0.48-0.586 1.508-1.265 3.078-2.039 1.414-0.719 2.469-1.625 3.16-2.719z" inkscape:connector-curvature="0"/>
      <path id="path142" style="fill-rule:evenodd;fill:#9ddabe" d="m50.559 45.88c0.507 0.133 1.054-0.051 1.64-0.558 0.934-0.774 1.602-1.336 2-1.68 0.696-0.586 1.16-1.094 1.403-1.52 0.21-0.347 0.664-0.773 1.359-1.281 0.691-0.48 1.105-0.855 1.238-1.121 0.266-0.531 1.403-1.465 3.403-2.801l0.277-1.16c0.375-0.851 1.016-1.531 1.922-2.039 1.414-0.773 2.187-1.187 2.32-1.238 0.504-0.16 0.934-0.016 1.277 0.437 0.536 0.801 1.204 1.735 2 2.801 0.75 0.988 1.188 1.586 1.321 1.801 0.269 0.48 0.492 1.078 0.679 1.801 0.161 0.664 0.243 1.332 0.243 2l-0.039 0.8c-0.536 2.133-0.801 3.332-0.801 3.598 0 0.293 0.32 0.988 0.961 2.082 0.664 1.066 1.144 1.707 1.437 1.918 0.242 0.16 0.746 0.348 1.52 0.563l1.082 0.238 1.801-4 2.199-2.801c0 0.16 0.039 0.254 0.121 0.281 0.156 0.028 0.449-0.332 0.879-1.082 0.426-0.746 0.746-1.531 0.961-2.359 0.133-0.426 0.211-0.774 0.238-1.039l1-2.399c0.133-0.402 0.586-0.761 1.359-1.082 0.829-0.347 1.375-0.254 1.641 0.282 0.398 0.8 0.867 1.664 1.398 2.597 0.215 0.375 0.657 0.949 1.321 1.723 0.453 0.558 0.679 0.984 0.679 1.277 0 0.028 0.161 0.336 0.481 0.922 0.293 0.559 0.402 1.52 0.32 2.879-0.105 1.652-0.121 3.148-0.039 4.48 0.078 1.282 0.227 2.122 0.442 2.52 0.105 0.242 0.343 0.586 0.718 1.039 0.375 0.484 0.668 0.934 0.879 1.363l1.121 1.637c0.453 0.668 0.68 1.32 0.68 1.961v2.602c0.133 0.398 0.133 1.066 0 2-0.055 0.371-0.172 0.933-0.359 1.679-0.161 0.559-0.243 1.067-0.243 1.52 0 0.508 0.11 1.054 0.321 1.64l0.281 0.758v1.121c0.961-1.359 1.625-2.398 2-3.121 0.078-0.133 0.586-1.199 1.52-3.199 0.48-1.012 1.039-1.879 1.679-2.598l1.602-1.8 0.121-4.762c0.133-3.438 0.355-5.785 0.68-7.039 0.183-0.692 0.453-2.52 0.796-5.481 0.321-2.773 0.79-5.148 1.403-7.121 0.664-2.16 1.105-4.707 1.32-7.636 0.078-1.469 0.106-2.723 0.078-3.762l-5.68-3.641c-4.106-2.668-6.946-4.586-8.52-5.758-1.867-1.386-3.535-2.308-5-2.761-1.387-0.426-3.254-0.641-5.602-0.641-1.57 0-3.586-0.305-6.039-0.918-2.48-0.586-4.398-0.883-5.757-0.883-1.387 0-3.364-0.066-5.922-0.199-2.188-0.051-4.012 0.082-5.481 0.402-1.144 0.266-2.625 0.813-4.437 1.637-1.602 0.774-2.922 1.227-3.961 1.363-0.746 0.106-1.707 0.161-2.879 0.161-1.016 0-2.387 0.144-4.121 0.437-4.453 0.773-7.52 1.641-9.199 2.602-0.934 0.535-1.668 1-2.204 1.398l-2.238 2.441c-1.601 1.625-2.652 2.481-3.16 2.559 1.199 0 2.133 0.402 2.801 1.199 0.238 0.403 0.414 0.668 0.519 0.801 0.133 0.188 0.895 0.855 2.282 2 1.464 1.199 2.371 2.055 2.718 2.563 0.266 0.613 0.559 1.226 0.879 1.839 0.028 0.051 0.403 0.68 1.121 1.879 0.239 0.426 0.399 0.801 0.481 1.121 0.265 1.598 0.465 2.598 0.597 3 0.27 0.453 0.497 0.879 0.68 1.278 0.348 0.722 0.524 1.496 0.524 2.32 0 0.641 0.093 1.602 0.277 2.879 0.16 1.07 0.199 1.777 0.121 2.121-0.078 0.426 0 0.988 0.238 1.68l0.364 0.922c0.265 0.664 0.464 1.531 0.597 2.597l0.403 3.403c0.371-0.426 0.773-0.922 1.199-1.481 0.879-1.094 1.48-1.933 1.801-2.519 0.531-0.934 1.597-2.067 3.199-3.403 0-0.238 0.105-0.453 0.32-0.636 0.399-0.348 1.094-0.403 2.078-0.161 1.227 0.426 2.016 0.68 2.36 0.758z" inkscape:connector-curvature="0"/>
      <path id="path144" style="fill-rule:evenodd;fill:#84c5a2" d="m49.398 38.72 1 0.801 0.641-2.559c0.43-2.187 0.68-4.402 0.762-6.64 0.078-2.188 0.879-3.629 2.398-4.321 1.813-0.453 3.016-0.945 3.602-1.48 0.719-0.641 1.32-1.067 1.801-1.281 1.25-0.559 2.05-0.934 2.398-1.118 1.227-0.668 2.453-1.121 3.68-1.363 1.121-0.238 1.894-0.25 2.32-0.039 0.801 0.133 1.441 0.242 1.922 0.32 0.851 0.16 1.277 0.52 1.277 1.082 0 0.664 0.16 1.52 0.481 2.559 0.293 0.961 0.601 1.707 0.922 2.238 1.066 1.469 1.933 2.867 2.597 4.203 1.067 2.133 1.867 3.465 2.403 4l2.398 2c0.215 0.161 0.441 0.278 0.68 0.36 0.508 0.183 0.882 0.066 1.121-0.36 0.238-0.402 0.664-1.293 1.277-2.679 0.695-1.575 1.07-2.414 1.121-2.524 0.266-0.531 0.801-1.265 1.602-2.199l0.597-1c0.161-0.266 0.387-0.414 0.68-0.437 0.563-0.028 1.137 0.585 1.723 1.839 0.504 1.09 0.945 2.239 1.32 3.438 0.293 1.039 0.52 1.695 0.68 1.961 0.238 0.398 0.613 0.746 1.121 1.039l1.277 0.762c0.055 0.05 0.574 0.121 1.563 0.199 0.664 0.054 1.078 0.519 1.238 1.398 0.078 0.453 0.16 1.375 0.238 2.762 0.082 0.984 0.27 1.867 0.563 2.641 0.16 0.371 0.371 1.332 0.64 2.878 0.133 0.747 0.387 0.856 0.758 0.321 1.039-1.442 1.641-2.574 1.801-3.399 0.055-0.269 0.215-0.589 0.48-0.961 0.215-0.293 0.321-0.707 0.321-1.242 0-0.933 0.531-1.863 1.597-2.797l0.442-0.043c0.293-1.679 0.613-3.066 0.961-4.16 0.664-2.16 1.105-4.707 1.32-7.636 0.078-1.469 0.106-2.723 0.078-3.762l-5.68-3.641c-4.106-2.668-6.946-4.586-8.52-5.758-1.867-1.386-3.535-2.308-5-2.761-1.387-0.426-3.254-0.641-5.602-0.641-1.57 0-3.586-0.305-6.039-0.918-2.48-0.586-4.398-0.883-5.757-0.883-1.387 0-3.364-0.066-5.922-0.199-2.188-0.051-4.012 0.082-5.481 0.402-1.144 0.266-2.625 0.813-4.437 1.637-1.602 0.774-2.922 1.227-3.961 1.363-0.746 0.106-1.707 0.161-2.879 0.161-1.016 0-2.387 0.144-4.121 0.437-4.453 0.773-7.52 1.641-9.199 2.602-0.934 0.535-1.668 1-2.204 1.398l-2.476 2.641c0.746 0.507 1.266 0.851 1.558 1.039 0.586 0.32 1.227 0.562 1.918 0.722 0.11 0.024 1.403 0.09 3.883 0.2 1.278 0.05 2.117 0.519 2.52 1.398 0.613 1.492 1.066 2.563 1.359 3.199 0.508 1.094 1.051 1.762 1.641 2 0.211 0.11 0.867 0.137 1.961 0.082 0.691-0.027 1.238 0.348 1.636 1.121 0.243 0.453 0.696 1.227 1.364 2.321 0.531 0.824 0.945 1.652 1.238 2.476 0.348 0.91 0.852 1.989 1.52 3.242l0.878 1.559z" inkscape:connector-curvature="0"/>
      <path id="path146" style="fill-rule:evenodd;fill:#70ac8b" d="m49.801 35.322c0 0.425 0.172 0.878 0.519 1.359l0.481 0.641 0.918-5.481 0.082-1.519c0.027-0.989 0.199-1.813 0.519-2.481 0.375-2.883 0.535-4.652 0.481-5.32-0.106-1.149 0.039-2.399 0.437-3.762 0.375-1.25 0.828-2.199 1.364-2.84 0.425-0.613 0.73-0.984 0.918-1.117 0.214-0.187 0.773-0.414 1.679-0.68 0.586-0.187 1.281-0.269 2.082-0.242 0.985 0.055 2.227-0.066 3.719-0.359 1.84-0.348 3.078-0.559 3.719-0.641 0.801-0.051 1.629-0.105 2.48-0.16 0.508-0.027 1.414-0.16 2.723-0.398 0.558-0.11 0.918-0.039 1.078 0.199 0.32 0.48 0.535 0.84 0.641 1.078 0.187 0.535 0.238 1.109 0.16 1.723-0.133 0.64-0.215 1.078-0.242 1.32-0.051 0.371-0.039 1.066 0.043 2.078 0.078 0.988 0.238 1.879 0.476 2.68l0.32 0.922 1.801-4c0.535-1.602 1.535-2.403 3-2.403 1.469-0.105 2.496-0.172 3.082-0.199 0.985-0.051 1.559 0.082 1.719 0.402 0.16 0.321 0.441 0.719 0.84 1.2l0.558 0.597 1.801 1.403h1.801c2.535 1.734 3.934 2.933 4.199 3.597 0.16 0.43 0.414 0.856 0.762 1.281l0.437 0.52c0.137 0.801 0.336 1.402 0.602 1.801 0.027 0.535 0.078 1.054 0.16 1.558 0.188 1.016 0.801 2.094 1.84 3.243 1.094 1.199 1.867 2.386 2.32 3.558 0.078 0.242 0.239 0.988 0.481 2.242l0.199 1c0.426-0.242 0.879-0.523 1.359-0.839 0.934-0.668 1.481-1.254 1.641-1.762 0.32-0.906 0.719-1.602 1.199-2.078 0.801-3.231 1.133-6.535 1-9.922l-5.68-3.641c-4.106-2.668-6.946-4.586-8.52-5.758-1.867-1.386-3.535-2.308-5-2.761-1.387-0.426-3.254-0.641-5.602-0.641-1.57 0-3.586-0.305-6.039-0.918-2.48-0.586-4.398-0.883-5.757-0.883-1.387 0-3.364-0.066-5.922-0.199-2.188-0.051-4.012 0.082-5.481 0.402-1.144 0.266-2.625 0.813-4.437 1.637-1.602 0.774-2.922 1.227-3.961 1.363-0.746 0.106-1.707 0.161-2.879 0.161-1.016 0-2.387 0.144-4.121 0.437-4.453 0.773-7.52 1.641-9.199 2.602l-0.082 0.039c1.546 0.105 2.906 0.332 4.082 0.679 1.144 0.426 2.078 0.719 2.796 0.883 0.297 0.051 1.204 0.145 2.723 0.277 0.504 0.055 1 0.36 1.481 0.922 1.597 1.868 2.398 3.2 2.398 4 0 0.348 0.254 0.786 0.762 1.321 0.558 0.613 0.906 1.105 1.039 1.48 0.078 0.238 0.133 0.68 0.16 1.32 0.051 0.532 0.266 1.223 0.641 2.079 0.21 0.48 0.625 1.132 1.238 1.961 0.32 0.398 0.441 0.945 0.359 1.64-0.265 1.598-0.398 2.731-0.398 3.399z" inkscape:connector-curvature="0"/>
      <path id="path148" style="fill-rule:evenodd;fill:#578e6d" d="m48.801 12.122c-0.746 0.106-1.707 0.161-2.879 0.161-1.016 0-2.387 0.144-4.121 0.437-2.906 0.508-5.281 1.082-7.121 1.723 1.574-0.055 3.32-0.071 5.242-0.043 2.558 0.082 3.984 0.121 4.277 0.121 1.52 0 2.68 0.187 3.481 0.558 0.695 0.481 1.199 0.829 1.519 1.039 0.453 0.27 0.801 0.336 1.039 0.204 0.375-0.348 0.762-0.68 1.16-1 1.149-0.961 2.481-1.895 4-2.801 0.508-0.613 0.84-0.988 1-1.121 0.243-0.215 1.575-0.442 4-0.68 2.508-0.238 4.883-0.227 7.122 0.039 2.265 0.375 3.894 0.629 4.878 0.762 1.254 0.16 2.297 0.48 3.122 0.961l0.878 0.636c0.375-0.425 0.922-0.796 1.641-1.117 1.414-0.64 3-0.668 4.762-0.082 2.105 0.696 3.293 1.11 3.558 1.242 0.266 0.133 0.946 0.653 2.039 1.559 1.922 1.574 3.989 3.039 6.204 4.398 2.078 1.282 3.746 2.547 5 3.801 0.503 0.508 1.023 0.895 1.558 1.16l0.641 0.243c1.039-0.243 2.187-0.414 3.437-0.524l-0.04-0.277-5.68-3.641c-4.106-2.668-6.946-4.586-8.52-5.762-1.867-1.386-3.535-2.304-5-2.757-1.387-0.426-3.254-0.641-5.602-0.641-1.57 0-3.586-0.309-6.039-0.922-2.48-0.586-4.398-0.879-5.757-0.879-1.387 0-3.364-0.066-5.922-0.199-2.188-0.055-4.012 0.078-5.481 0.398-1.144 0.27-2.625 0.817-4.437 1.641-1.602 0.774-2.922 1.227-3.961 1.363z" inkscape:connector-curvature="0"/>
      <g id="g150">
        <g id="g152" clip-path="url(#clipPath154)">
          <g id="g158" transform="matrix(.8 0 0 .8 -.0000030217 -1.5992)">
            <g id="g182" mask="url(#mask174)">
              <path id="path192" style="fill-rule:evenodd;fill:url(#radialGradient184)" d="m70.398 73.482c-0.132 3.57-0.265 5.918-0.398 7.039-0.16 1.332-0.746 4.027-1.762 8.078l-1.437 5.723c2.398 1.597 4.265 2.398 5.597 2.398 0.59 0 1.204 0.16 1.84 0.48 0.27-0.398 0.524-0.894 0.762-1.48 0.508-1.172 1.027-3.613 1.559-7.32 0.48-3.227 1.363-5.852 2.64-7.879 1.414-2.238 2.602-4.574 3.563-7 0.504-1.227 0.851-2.227 1.039-3-0.453-0.586-0.856-1.188-1.199-1.801-1.094-2.027-2.094-5.625-3-10.801-0.321-1.918-0.055-3.824 0.796-5.719 0.43-0.957 0.895-1.718 1.403-2.281 0.801 2 1.332 4.403 1.597 7.203 0.161 1.571 0.602 2.571 1.321 3 0.961 0.559 1.586 1.161 1.883 1.797 0.476 1.067 0.824 1.762 1.039 2.082 0.32 0.481 0.707 1.121 1.16 1.918 1.945 3.442 3.144 5.563 3.597 6.364 1.79-2.403 2.989-4.188 3.602-5.364 0.078-0.133 0.586-1.199 1.52-3.199 0.48-1.012 1.039-1.879 1.679-2.598l1.602-1.8 0.121-4.762c0.133-3.438 0.355-5.785 0.68-7.039 0.183-0.692 0.453-2.52 0.796-5.481 0.321-2.773 0.79-5.148 1.403-7.121 0.664-2.16 1.105-4.707 1.32-7.636 0.078-1.469 0.106-2.723 0.078-3.762l-5.68-3.641c-4.106-2.668-6.946-4.586-8.52-5.758-1.785-1.336-3.375-2.226-4.762-2.679-1.332-0.457-3.05-0.696-5.16-0.723 1.227 0.988 2.309 2.293 3.242 3.922 0.907 1.57 1.266 2.664 1.082 3.277-0.109 0.375-0.59 0.949-1.441 1.723-0.906 0.851-1.625 1.879-2.16 3.078-2.508 5.762-4.305 9.961-5.399 12.602-0.562 1.386-1.187 3.265-1.882 5.64-0.641 2.184-1.282 3.973-1.918 5.36-0.668 1.519-0.895 3.718-0.68 6.597 0.238 3.043 0.266 4.84 0.078 5.403-0.371 1.144-0.625 2.093-0.758 2.839-0.082 0.559-0.226 2.012-0.441 4.36-0.133 1.414-0.266 4.066-0.403 7.961z" inkscape:connector-curvature="0"/>
            </g>
          </g>
        </g>
      </g>
      <path id="path194" style="fill-rule:evenodd;fill:#9ddabe" d="m70.398 71.521 1.122-4.879c0.718-3.574 1.082-6.188 1.082-7.84 0-2.32 0.093-4.227 0.277-5.723 0.242-1.945 0.683-3.796 1.32-5.558 0.481-1.332 1.067-3.321 1.762-5.961 0.641-2.559 1.117-4.238 1.437-5.039 0.297-0.774 0.961-2.762 2-5.961 0.989-3.039 1.657-4.985 2-5.84 0.27-0.641 1.043-1.801 2.321-3.48 1.043-1.387 1.601-2.493 1.679-3.321 0.082-1.011-0.105-1.984-0.558-2.918-0.32-0.64-1-1.668-2.039-3.082-0.746-1.011-1.961-1.183-3.641-0.519-0.633 0.265-1.226 0.586-1.781 0.961 0.367-0.133 0.906-0.2 1.621-0.2 0.984 0 1.758 0.149 2.32 0.438 0.692 0.348 1.317 0.988 1.879 1.922 0.586 0.988 0.735 2.215 0.442 3.679-0.293 1.415-0.95 2.735-1.961 3.961-0.774 0.907-1.602 2.614-2.481 5.122-1.254 3.382-2.094 5.531-2.519 6.437-0.828 1.734-1.813 4.375-2.961 7.922-1.067 3.492-1.707 5.547-1.918 6.156-0.215 0.668-0.403 2.27-0.563 4.801-0.183 3.016-0.332 4.855-0.437 5.519-0.16 1.176-0.281 3.762-0.36 7.762l-0.043 5.641z" inkscape:connector-curvature="0"/>
    </g>
  </g>
<metadata><rdf:RDF><cc:Work><dc:format>image/svg+xml</dc:format><dc:type rdf:resource="http://purl.org/dc/dcmitype/StillImage"/><cc:license rdf:resource="http://creativecommons.org/licenses/publicdomain/"/><dc:publisher><cc:Agent rdf:about="http://openclipart.org/"><dc:title>Openclipart</dc:title></cc:Agent></dc:publisher></cc:Work><cc:License rdf:about="http://creativecommons.org/licenses/publicdomain/"><cc:permits rdf:resource="http://creativecommons.org/ns#Reproduction"/><cc:permits rdf:resource="http://creativecommons.org/ns#Distribution"/><cc:permits rdf:resource="http://creativecommons.org/ns#DerivativeWorks"/></cc:License></rdf:RDF></metadata></svg>
