<svg width="401" height="390" xmlns="http://www.w3.org/2000/svg" xmlns:xlink="http://www.w3.org/1999/xlink" xmlns:undefined="http://www.inkscape.org/namespaces/inkscape">
 <defs>
  <pattern patternTransform="translate(144.12 548.07)" xlink:href="#imagebot_43" id="imagebot_18"/>
  <pattern height="27.85712" patternTransform="translate(67.857 529.15)" patternUnits="userSpaceOnUse" width="28.57143" id="imagebot_43">
   <g transform="translate(-67.857 -529.15)" id="imagebot_44">
    <path fill="#d35f5f" d="M76.429,533.43C76.429,535.2052 75.1498,536.6443 73.5719,536.6443C71.9939,536.6443 70.7148,535.2052 70.7148,533.43S71.994,530.2157 73.5719,530.2157C75.1499,530.2157 76.429,531.6548 76.429,533.43z" id="imagebot_52"/>
    <path fill="#d35f5f" d="M84.286,543.79C84.286,545.7624 83.0068,547.3614 81.4289,547.3614C79.8509,547.3614 78.5718,545.7624 78.5718,543.79S79.851,540.2186 81.4289,540.2186C83.0069,540.2186 84.286,541.8176 84.286,543.79z" id="imagebot_51"/>
    <path fill="#d35f5f" d="M92.857,535.22C92.857,537.1924 91.5778,538.7914 89.9999,538.7914C88.4219,538.7914 87.1428,537.1924 87.1428,535.22S88.422,531.6486 89.9999,531.6486C91.5779,531.6486 92.857,533.2476 92.857,535.22z" id="imagebot_50"/>
    <path fill="#d35f5f" d="M75.357,550.76C75.357,552.6338 73.9179,554.1528 72.1427,554.1528S68.9284,552.6338 68.9284,550.76S70.3675,547.3671 72.1427,547.3671S75.357,548.8861 75.357,550.76z" id="imagebot_49"/>
    <path fill="#d35f5f" d="M96.429,549.51C96.429,551.2852 95.3897,552.7243 94.1076,552.7243S91.7862,551.2852 91.7862,549.51S92.8255,546.2957 94.1076,546.2957S96.429,547.7348 96.429,549.51z" id="imagebot_48"/>
    <path fill="#d35f5f" d="M84.643,531.83C84.643,533.3093 83.76356,534.5086 82.6787,534.5086C81.5939,534.5086 80.7144,533.3094 80.7144,531.83C80.7144,530.3507 81.59384,529.1514 82.6787,529.1514C83.7635,529.1514 84.643,530.3506 84.643,531.83z" id="imagebot_47"/>
    <path fill="#d35f5f" d="M86.786,554.68C86.786,555.9621 85.6667,557.0014 84.286,557.0014S81.786,555.9621 81.786,554.68S82.9053,552.3586 84.286,552.3586S86.786,553.3979 86.786,554.68z" id="imagebot_46"/>
    <path fill="#d35f5f" d="M72.143,540.58C72.143,541.9607 71.18361,543.08 70.0001,543.08S67.8572,541.9607 67.8572,540.58S68.81659,538.08 70.0001,538.08S72.143,539.1993 72.143,540.58z" id="imagebot_45"/>
   </g>
  </pattern>
  <linearGradient x1="-0.00132" y1="0.49998" x2="1.00128" y2="0.49998" id="imagebot_20">
   <stop stop-color="#d20b02" offset="0" id="imagebot_42"/>
   <stop stop-color="#d24c2f" offset="0.5" id="imagebot_41"/>
   <stop stop-color="#ba2929" offset="1" id="imagebot_40"/>
  </linearGradient>
  <filter color-interpolation-filters="sRGB" id="imagebot_14">
   <feGaussianBlur  stdDeviation="3.75724" id="imagebot_39"/>
  </filter>
  <filter x="-0.04797" y="-0.13497" color-interpolation-filters="sRGB" width="1.0959" height="1.2699" id="imagebot_16">
   <feGaussianBlur  stdDeviation="3.75724" id="imagebot_38"/>
  </filter>
  <filter x="-0.16832" y="-0.04461" color-interpolation-filters="sRGB" width="1.3366" height="1.0892" id="imagebot_12">
   <feGaussianBlur  stdDeviation="3.75724" id="imagebot_37"/>
  </filter>
  <filter color-interpolation-filters="sRGB" id="imagebot_10">
   <feGaussianBlur  stdDeviation="3.75724" id="imagebot_36"/>
  </filter>
  <filter x="-0.03883" y="-0.13189" color-interpolation-filters="sRGB" width="1.0777" height="1.2638" id="imagebot_8">
   <feGaussianBlur  stdDeviation="2.92405" id="imagebot_35"/>
  </filter>
  <radialGradient r="29.643" gradientTransform="matrix(0.57147 -0.60563 1.7208 1.6237 -276.174 103.021)" cx="449.64" cy="269.15" gradientUnits="userSpaceOnUse" id="imagebot_5">
   <stop stop-color="#aa0000" offset="0" id="imagebot_34"/>
   <stop stop-color="#aa0000" stop-opacity="0" offset="1" id="imagebot_33"/>
  </radialGradient>
  <filter x="-0.23494" y="-0.3" color-interpolation-filters="sRGB" width="1.4699" height="1.6" id="imagebot_6">
   <feGaussianBlur  stdDeviation="5.80357" id="imagebot_32"/>
  </filter>
  <filter color-interpolation-filters="sRGB" id="imagebot_22">
   <feGaussianBlur  stdDeviation="7.5799" id="imagebot_31"/>
  </filter>
  <linearGradient id="imagebot_64">
   <stop stop-color="rgb(0, 0, 0)" id="imagebot_76" offset="0"/>
   <stop stop-color="rgb(0, 0, 0)" id="imagebot_75" offset="1"/>
  </linearGradient>
  <radialGradient gradientTransform="matrix(1 0 0 1 75.5275 18.0396)" gradientUnits="userSpaceOnUse" r="38.55332" fy="345.81219" fx="225.49467" cy="345.81219" cx="225.49467" id="imagebot_59" xlink:href="#imagebot_64"/>
 </defs>
 <title/>
 <g label="Calque 1" id="imagebot_2">
  <g label="Calque 1" filter="url(#imagebot_22)" fill="#2b0000" transform="translate(-19.6074 -23.3592) matrix(1.0046 0 0 1.0046 -220.26 -74.8073)" id="imagebot_21">
   <path fill="#2b0000" d="M326.95,105.94C325.2646,117.71 370.387,184.058 388.569,237.26C382.3771,229.0041 238.939,294.254 252.199,328.174C259.1692,346.011 394.569,315.412 420.899,297.869C405.942,313.564 414.1846,451.959 423.9294,465.559C438.2644,485.554 512.7924,343.409 465.3454,289.789C507.0224,344.562 634.7454,332.318 634.0454,309.992C633.54527,294.198 496.6654,247.363 496.6654,247.363S590.5104,123.693 575.4574,117.053C532.3874,98.078 442.8174,192.383 440.0774,210.003C409.7474,114.483 327.6274,101.173 326.9474,105.953L326.95,105.94z" id="imagebot_30"/>
   <path fill="#2b0000" d="M326.78,105.58C325.0946,117.35 370.217,183.698 388.399,236.9C382.2071,228.6441 238.769,293.894 252.029,327.814C258.9992,345.651 394.399,315.052 420.729,297.509C405.772,313.204 414.0146,451.599 423.7594,465.199C438.0944,485.194 512.6224,343.049 465.1754,289.429C506.8524,344.202 634.5754,331.958 633.8754,309.632C633.37527,293.838 496.4954,247.003 496.4954,247.003S590.3404,123.333 575.2874,116.693C532.2174,97.717 442.6474,192.023 439.9074,209.643C409.5774,114.123 327.4574,100.813 326.7774,105.593L326.78,105.58z" id="imagebot_29"/>
   <path opacity="0.39726" filter="url(#imagebot_16)" fill="#2b0000" d="M251.43,327.36C260.7157,320.2172 439.29,262.36 439.29,262.36C446.1732,261.89072 459.622,284.941 430.7186,296.646C377.4696,318.521 300.1586,334.259 251.4286,327.36L251.43,327.36z" id="imagebot_28"/>
   <path opacity="0.41096" filter="url(#imagebot_14)" fill="#2b0000" d="M575.71,118.08C486.665,170.376 479.062,214.915 437.85,263.79C427.358,279.72 494.78,292.541 575.71,118.08z" id="imagebot_27"/>
   <path opacity="0.30479" filter="url(#imagebot_12)" fill="#2b0000" transform="matrix(-1 0 0 1 890 -10.714)" d="M440,263.08C435.2481,310.026 434.3232,418.83 462.143,479.51C481.355,475.6211 473.941,325.48 468.5716,308.8L440,263.08z" id="imagebot_26"/>
   <path opacity="0.23973" filter="url(#imagebot_10)" fill="#2b0000" d="M327.86,106.65C395.61,155.61 441.36,218.9 448.57,271.65C426.09,262.23 375.76,267.79 390,234.51L327.86,106.65z" id="imagebot_25"/>
   <path opacity="0.37329" filter="url(#imagebot_8)" fill="#2b0000" d="M635,312.36L445,265.93L469.29,291.65C517.06,335.45 601.98,335.61 635,312.36z" id="imagebot_24"/>
   <path opacity="0.27055" filter="url(#imagebot_6)" fill="#2b0000" d="M 473.5756998443604 267.72139992713926 C 473.5756998443604 280.5423999271393 460.3036998443603 290.93539992713926 443.93269984436034 290.93539992713926 S 414.28969984436037 280.5423999271393 414.28969984436037 267.72139992713926 S 427.56169984436036 244.5073999271393 443.93269984436034 244.5073999271393 S 473.5756998443604 254.9003999271393 473.5756998443604 267.72139992713926 z" id="imagebot_23"/>
  </g>
  <path transform="matrix(1 0 0 1 -233.777 -96.7882)" label="Calque 1" fill="url(#imagebot_20)" d="M326.95,105.94C325.2646,117.71 370.387,184.058 388.569,237.26C382.3771,229.0041 238.939,294.254 252.199,328.174C259.1692,346.011 394.569,315.412 420.899,297.869C405.942,313.564 414.1846,451.959 423.9294,465.559C438.2644,485.554 512.7924,343.409 465.3454,289.789C507.0224,344.562 634.7454,332.318 634.0454,309.992C633.54527,294.198 496.6654,247.363 496.6654,247.363S590.5104,123.693 575.4574,117.053C532.3874,98.078 442.8174,192.383 440.0774,210.003C409.7474,114.483 327.6274,101.173 326.9474,105.953L326.95,105.94z" id="imagebot_19"/>
  <path transform="matrix(1 0 0 1 -233.777 -96.7882)" label="Calque 1" fill="url(#imagebot_18)" d="M326.78,105.58C325.0946,117.35 370.217,183.698 388.399,236.9C382.2071,228.6441 238.769,293.894 252.029,327.814C258.9992,345.651 394.399,315.052 420.729,297.509C405.772,313.204 414.0146,451.599 423.7594,465.199C438.0944,485.194 512.6224,343.049 465.1754,289.429C506.8524,344.202 634.5754,331.958 633.8754,309.632C633.37527,293.838 496.4954,247.003 496.4954,247.003S590.3404,123.333 575.2874,116.693C532.2174,97.717 442.6474,192.023 439.9074,209.643C409.5774,114.123 327.4574,100.813 326.7774,105.593L326.78,105.58z" id="imagebot_17"/>
  <path transform="matrix(1 0 0 1 -233.777 -96.7882)" label="Calque 1" opacity="0.39726" filter="url(#imagebot_16)" fill="#800000" d="M251.43,327.36C260.7157,320.2172 439.29,262.36 439.29,262.36C446.1732,261.89072 459.622,284.941 430.7186,296.646C377.4696,318.521 300.1586,334.259 251.4286,327.36L251.43,327.36z" id="imagebot_15"/>
  <path transform="matrix(1 0 0 1 -233.777 -96.7882)" label="Calque 1" opacity="0.41096" filter="url(#imagebot_14)" fill="#800000" d="M575.71,118.08C486.665,170.376 479.062,214.915 437.85,263.79C427.358,279.72 494.78,292.541 575.71,118.08z" id="imagebot_13"/>
  <path label="Calque 1" opacity="0.30479" filter="url(#imagebot_12)" fill="#800000" transform="matrix(-1 0 0 1 656.223 -107.502)" d="M440,263.08C435.2481,310.026 434.3232,418.83 462.143,479.51C481.355,475.6211 473.941,325.48 468.5716,308.8L440,263.08z" id="imagebot_11"/>
  <path transform="translate(-2 0) matrix(1 0 0 1 -233.777 -96.7882)" label="Calque 1" opacity="0.23973" filter="url(#imagebot_10)" fill="#800000" d="M327.86,106.65C395.61,155.61 441.36,218.9 448.57,271.65C426.09,262.23 375.76,267.79 390,234.51L327.86,106.65z" id="imagebot_9"/>
  <path transform="matrix(1 0 0 1 -233.777 -96.7882)" label="Calque 1" opacity="0.37329" filter="url(#imagebot_8)" fill="#aa0000" d="M635,312.36L445,265.93L469.29,291.65C517.06,335.45 601.98,335.61 635,312.36z" id="imagebot_7"/>
  <path transform="matrix(1 0 0 1 -233.777 -96.7882)" label="Calque 1" opacity="0.27055" filter="url(#imagebot_6)" fill="url(#imagebot_5)" d="M 473.5756998443604 267.72139992713926 C 473.5756998443604 280.5423999271393 460.3036998443603 290.93539992713926 443.93269984436034 290.93539992713926 S 414.28969984436037 280.5423999271393 414.28969984436037 267.72139992713926 S 427.56169984436036 244.5073999271393 443.93269984436034 244.5073999271393 S 473.5756998443604 254.9003999271393 473.5756998443604 267.72139992713926 z" id="imagebot_4"/>
  <title>Calque 1</title>

  <metadata id="imagebot_63">image/svg+xmllogoabril 2011M Mlogolentesglassesverdeblancogrisnegrologo de un website</metadata>
  <path transform="matrix(0.512088 0 0 0.512088 83.1478 -0.243175)" label="Capa 1" fill="rgb(255, 255, 255)" stroke="rgb(0, 0, 0)" stroke-width="5.7" stroke-miterlimit="4" stroke-opacity="0.61497" id="imagebot_60" d="M 240.90349964904783 363.85179037231444 C 240.90349964904783 383.57020037231445 224.91857964904784 399.55512037231443 205.20016964904787 399.55512037231443 C 185.48176964904786 399.55512037231443 169.49684964904785 383.57020037231445 169.49684964904785 363.85179037231444 C 169.49684964904785 344.13339037231447 185.48176964904786 328.1484703723145 205.20016964904787 328.1484703723145 C 224.91857964904784 328.1484703723145 240.90349964904783 344.13339037231447 240.90349964904783 363.85179037231444 z"/>
  <path transform="matrix(0.512088 0 0 0.512088 83.1478 -0.243175)" label="Capa 1" fill="rgb(255, 255, 255)" stroke="url(#imagebot_59)" stroke-width="5.7" stroke-miterlimit="4" stroke-opacity="0.61497" d="M 336.7254963378906 363.85179037231444 C 336.7254963378906 383.57020037231445 320.7405763378906 399.55512037231443 301.02216633789067 399.55512037231443 C 281.30376633789064 399.55512037231443 265.3188463378906 383.57020037231445 265.3188463378906 363.85179037231444 C 265.3188463378906 344.13339037231447 281.30376633789064 328.1484703723145 301.02216633789067 328.1484703723145 C 320.7405763378906 328.1484703723145 336.7254963378906 344.13339037231447 336.7254963378906 363.85179037231444 z" id="imagebot_58"/>
  <path label="Capa 1" opacity="0.83857" fill="rgb(0, 0, 0)" transform="matrix(0.519508 0 0 0.519508 71.712 29.9117)" d="M244.28591,306.53854C244.28591,313.28431 238.48085,318.75284 231.31996,318.75284C224.15907,318.75284 218.35402,313.28431 218.35402,306.53854C218.35402,299.79277 224.15907,294.32425 231.31996,294.32425C238.48085,294.32425 244.28591,299.79277 244.28591,306.53854z" id="imagebot_57"/>
  <path label="Capa 1" opacity="0.83857" fill="rgb(0, 0, 0)" id="imagebot_56" d="M244.28591,306.53854C244.28591,313.28431 238.48085,318.75284 231.31996,318.75284C224.15907,318.75284 218.35402,313.28431 218.35402,306.53854C218.35402,299.79277 224.15907,294.32425 231.31996,294.32425C238.48085,294.32425 244.28591,299.79277 244.28591,306.53854z" transform="matrix(0.519508 0 0 0.519508 120.974 29.9117)"/>
 </g>
 <metadata>image/svg+xmlOpenclipart</metadata>
</svg>